#N canvas 558 221 450 300 12;
#X msg 266 58 learn 10;
#X msg 263 108 learn 0;
#X msg 262 136 write templates.txt;
#X msg 264 82 debounce 500;
#X obj 26 51 adc~;
#X msg 35 183 print;
#X obj 40 113 env~;
#X floatatom 40 137 5 0 0 0 - - -;
#X msg 266 33 forget;
#X obj 135 212 print r;
#X obj 114 139 bonk~;
#X msg 104 24 minvel 50;
#X connect 0 0 10 0;
#X connect 1 0 10 0;
#X connect 2 0 10 0;
#X connect 3 0 10 0;
#X connect 4 0 6 0;
#X connect 4 0 10 0;
#X connect 5 0 10 0;
#X connect 6 0 7 0;
#X connect 8 0 10 0;
#X connect 10 1 9 0;
#X connect 11 0 10 0;
