#N canvas 516 94 667 459 12;
#X obj 210 37 inlet~;
#X obj 169 159 +~ 200;
#X obj 312 390 outlet~;
#X obj 169 135 *~ 50;
#X obj 169 111 osc~ 0.5;
#X obj 147 206 vcf~ 30;
#X obj 274 135 *~ 50;
#X obj 274 111 osc~ 0.5;
#X obj 252 206 vcf~ 30;
#X obj 274 159 +~ 400;
#X obj 373 139 *~ 50;
#X obj 373 115 osc~ 0.5;
#X obj 351 210 vcf~ 30;
#X obj 373 163 +~ 800;
#X obj 467 141 *~ 50;
#X obj 467 117 osc~ 0.5;
#X obj 445 212 vcf~ 30;
#X obj 467 165 +~ 1600;
#X obj 315 61 *~;
#X obj 310 30 noise~;
#X obj 360 55 tgl 15 0 empty empty empty 17 7 0 10 -262144 -1 -1 0
1;
#X obj 219 70 *~;
#X obj 264 64 tgl 15 0 empty empty empty 17 7 0 10 -262144 -1 -1 0
1;
#X connect 0 0 21 0;
#X connect 1 0 5 1;
#X connect 3 0 1 0;
#X connect 4 0 3 0;
#X connect 5 0 2 0;
#X connect 6 0 9 0;
#X connect 7 0 6 0;
#X connect 8 0 2 0;
#X connect 9 0 8 1;
#X connect 10 0 13 0;
#X connect 11 0 10 0;
#X connect 12 0 2 0;
#X connect 13 0 12 1;
#X connect 14 0 17 0;
#X connect 15 0 14 0;
#X connect 16 0 2 0;
#X connect 17 0 16 1;
#X connect 18 0 5 0;
#X connect 18 0 8 0;
#X connect 18 0 12 0;
#X connect 18 0 16 0;
#X connect 19 0 18 0;
#X connect 20 0 18 1;
#X connect 21 0 5 0;
#X connect 21 0 8 0;
#X connect 21 0 12 0;
#X connect 21 0 16 0;
#X connect 22 0 21 1;
