#N canvas 830 142 450 491 12;
#X obj 25 298 delwrite~ \$0-buf 500;
#X obj 187 382 delread4~ \$0-buf 20;
#X obj 108 480 outlet~;
#X obj 56 25 inlet~;
#X obj 187 308 osc~ 1;
#X obj 187 332 *~ 10;
#X obj 187 356 +~ 10;
#X obj 44 228 *~;
#X obj 53 363 clip~ -0.95 0.95;
#X obj 187 406 *~ 0.95;
#X floatatom 204 261 5 0 0 0 - - -;
#X obj 104 106 gate~ 5 10 100 400;
#X connect 1 0 2 0;
#X connect 1 0 9 0;
#X connect 3 0 7 0;
#X connect 3 0 11 0;
#X connect 4 0 5 0;
#X connect 5 0 6 0;
#X connect 6 0 1 0;
#X connect 7 0 0 0;
#X connect 8 0 0 0;
#X connect 9 0 8 0;
#X connect 10 0 4 0;
#X connect 11 0 7 1;
