#N canvas 623 184 450 300 12;
#X obj 114 206 inlet~;
#X obj 114 230 delwrite~ \$0-buf 500;
#X obj 236 161 delread4~ \$0-buf 20;
#X obj 236 185 *~ 0.9;
#X floatatom 236 114 5 0 0 0 - - -;
#X obj 236 137 sig~;
#X obj 115 269 outlet~;
#X connect 0 0 1 0;
#X connect 2 0 3 0;
#X connect 2 0 6 0;
#X connect 3 0 1 0;
#X connect 4 0 5 0;
#X connect 5 0 2 0;
