#N canvas 830 168 450 491 12;
#X obj 25 298 delwrite~ \$0-buf 500;
#X obj 187 382 delread4~ \$0-buf 20;
#X obj 187 406 *~ 0.9;
#X floatatom 187 306 5 0 0 0 - - -;
#X obj 187 329 sig~;
#X obj 108 480 outlet~;
#X obj 187 277 / 5;
#X obj 44 228 *~;
#X obj 124 93 env~ 64;
#X obj 122 194 line~;
#X obj 39 48 inlet~;
#X floatatom 199 98 5 0 0 0 - - -;
#X floatatom 182 60 5 0 0 0 - - -;
#X obj 124 118 > 50;
#X obj 124 142 sel 1;
#X msg 124 166 1 10;
#X obj 186 173 del 10;
#X msg 238 175 0 500;
#X obj 53 363 clip~ -0.9 0.9;
#X connect 1 0 2 0;
#X connect 1 0 5 0;
#X connect 2 0 18 0;
#X connect 3 0 4 0;
#X connect 4 0 1 0;
#X connect 6 0 3 0;
#X connect 7 0 0 0;
#X connect 8 0 12 0;
#X connect 8 0 13 0;
#X connect 8 0 6 0;
#X connect 9 0 7 1;
#X connect 10 0 8 0;
#X connect 10 0 7 0;
#X connect 11 0 13 1;
#X connect 13 0 14 0;
#X connect 14 0 15 0;
#X connect 14 0 16 0;
#X connect 15 0 9 0;
#X connect 16 0 17 0;
#X connect 17 0 9 0;
#X connect 18 0 0 0;
