#N canvas 253 169 654 482 12;
#X obj 51 13 array define \$0-buf 10000;
#X obj 68 192 env~ 64;
#X obj 68 216 > 80;
#X obj 68 240 sel 1;
#X obj 68 266 t b b b;
#X obj 60 360 spigot;
#X msg 113 304 0;
#X msg 47 321 1;
#X obj 215 347 hip~ 5;
#X obj 280 231 +~ 1;
#X obj 215 207 -~ 0.5;
#X obj 215 257 cos~;
#X obj 215 290 *~;
#X obj 216 145 phasor~;
#X obj 215 232 *~ 0.5;
#X obj 280 257 tabread4~ \$0-buf;
#X obj 280 206 *~ 226;
#X floatatom 216 110 5 0 0 0 - - -;
#X floatatom 315 172 5 0 0 0 - - -;
#X obj 215 318 *~;
#X obj 254 308 tgl 15 0 empty empty empty 17 7 0 10 -262144 -1 -1 1
1;
#X obj 47 297 del 50;
#X obj 336 67 sig~;
#X obj 336 96 +~;
#X obj 381 30 osc~ 1;
#X obj 381 54 *~ 5;
#X obj 25 163 inlet~;
#X obj 216 439 outlet~;
#X obj 398 190 soundfiler;
#X obj 397 214 t f f;
#X obj 429 240 / 44.1;
#X text 484 213 calculate the soundfile length in ms, f 20;
#X obj 499 51 symbol \$1;
#X obj 499 6 loadbang;
#X obj 499 73 pack s s;
#X obj 499 28 t b b;
#X obj 429 265 s \$0-filelength;
#X obj 398 115 bng 15 250 50 0 empty empty empty 17 7 0 10 -262144
-1 -1;
#X obj 398 137 symbol \$0-buf;
#X floatatom 340 229 5 0 0 0 - - -;
#X obj 81 401 random 1200;
#X floatatom 130 209 5 0 0 0 - - -;
#X msg 398 162 read -resize Kb_ord_tief.wav \$1;
#X connect 1 0 2 0;
#X connect 2 0 3 0;
#X connect 3 0 4 0;
#X connect 4 0 21 0;
#X connect 4 1 6 0;
#X connect 4 2 5 0;
#X connect 5 0 40 0;
#X connect 6 0 5 1;
#X connect 7 0 5 1;
#X connect 8 0 27 0;
#X connect 9 0 15 0;
#X connect 10 0 14 0;
#X connect 11 0 12 0;
#X connect 12 0 19 0;
#X connect 13 0 10 0;
#X connect 13 0 16 0;
#X connect 14 0 11 0;
#X connect 15 0 12 1;
#X connect 16 0 9 0;
#X connect 17 0 13 0;
#X connect 18 0 16 1;
#X connect 19 0 8 0;
#X connect 20 0 19 1;
#X connect 21 0 7 0;
#X connect 22 0 23 0;
#X connect 24 0 25 0;
#X connect 25 0 23 1;
#X connect 26 0 1 0;
#X connect 28 0 29 0;
#X connect 29 1 30 0;
#X connect 30 0 36 0;
#X connect 32 0 34 0;
#X connect 33 0 35 0;
#X connect 35 0 32 0;
#X connect 37 0 38 0;
#X connect 38 0 42 0;
#X connect 39 0 9 1;
#X connect 40 0 39 0;
#X connect 41 0 2 1;
#X connect 42 0 28 0;
