#N canvas 37 213 450 482 12;
#X obj 25 428 tabwrite~ \$0-buf;
#X obj 68 400 bng 15 250 50 0 empty empty empty 17 7 0 10 -262144 -1
-1;
#X obj 68 192 env~ 64;
#X obj 68 216 > 80;
#X obj 68 240 sel 1;
#X obj 68 266 t b b b;
#X obj 60 360 spigot;
#X msg 113 304 0;
#X msg 47 321 1;
#X obj 205 411 hip~ 5;
#X obj 199 285 *~;
#X obj 217 250 tabread4~ \$0-buf;
#X obj 205 382 *~;
#X obj 244 372 tgl 15 0 empty empty empty 17 7 0 10 -262144 -1 -1 1
1;
#X obj 47 297 del 50;
#X obj 25 163 inlet~;
#X obj 204 444 outlet~;
#X obj 215 185 line~;
#X obj 51 13 array define \$0-buf 22050;
#X msg 216 149 22050 1000;
#X msg 174 158 0;
#X obj 202 333 *~;
#X obj 291 375 line~;
#X msg 277 284 1 20;
#X msg 347 338 0 20;
#X obj 252 96 t b b;
#X obj 243 53 bng 15 250 50 0 empty empty empty 17 7 0 10 -262144 -1
-1;
#X obj 295 409 env~;
#X floatatom 295 433 5 0 0 0 - - -;
#X obj 311 299 t b;
#X obj 346 315 del 960;
#X connect 1 0 0 0;
#X connect 2 0 3 0;
#X connect 3 0 4 0;
#X connect 4 0 5 0;
#X connect 5 0 14 0;
#X connect 5 1 7 0;
#X connect 5 2 6 0;
#X connect 6 0 1 0;
#X connect 7 0 6 1;
#X connect 8 0 6 1;
#X connect 9 0 16 0;
#X connect 10 0 21 0;
#X connect 11 0 10 1;
#X connect 12 0 9 0;
#X connect 13 0 12 1;
#X connect 14 0 8 0;
#X connect 15 0 0 0;
#X connect 15 0 2 0;
#X connect 17 0 10 0;
#X connect 19 0 17 0;
#X connect 20 0 17 0;
#X connect 21 0 12 0;
#X connect 22 0 21 1;
#X connect 22 0 27 0;
#X connect 23 0 22 0;
#X connect 23 0 29 0;
#X connect 24 0 22 0;
#X connect 25 0 19 0;
#X connect 25 1 23 0;
#X connect 26 0 25 0;
#X connect 27 0 28 0;
#X connect 29 0 30 0;
#X connect 30 0 24 0;
