#N canvas 375 134 802 500 12;
#X obj 25 428 tabwrite~ \$0-buf;
#X obj 68 400 bng 15 250 50 0 empty empty empty 17 7 0 10 -262144 -1
-1;
#X obj 51 13 array define \$0-buf 10000;
#X obj 68 192 env~ 64;
#X obj 68 216 > 80;
#X obj 68 240 sel 1;
#X obj 68 266 t b b b;
#X obj 60 360 spigot;
#X msg 113 304 0;
#X msg 47 321 1;
#X obj 377 349 hip~ 5;
#X obj 442 183 +~ 1;
#X obj 377 159 -~ 0.5;
#X obj 377 209 cos~;
#X obj 377 242 *~;
#X obj 378 117 phasor~;
#X obj 377 184 *~ 0.5;
#X obj 442 209 tabread4~ \$0-buf;
#X obj 442 158 *~ 226;
#X floatatom 378 68 5 0 0 0 - - -;
#X floatatom 477 124 5 0 0 0 - - -;
#X obj 377 270 *~;
#X obj 416 260 tgl 15 0 empty empty empty 17 7 0 10 -262144 -1 -1 1
1;
#X obj 47 297 del 50;
#X obj 378 92 sig~;
#X obj 25 163 inlet~;
#X obj 330 452 outlet~;
#X obj 377 309 *~;
#X obj 468 301 line~;
#X obj 474 389 t b b;
#X obj 573 315 del 500;
#X obj 557 257 bng 15 250 50 0 empty empty empty 17 7 0 10 -262144
-1 -1;
#X obj 459 264 pack 1 20;
#X obj 358 408 pitchshift;
#X obj 279 350 line;
#X msg 214 294 0;
#X floatatom 649 319 5 0 0 0 - - -;
#X obj 279 326 pack -5 600;
#X obj 278 290 f;
#X obj 89 402 s \$0-trigger;
#X obj 466 355 r \$0-trigger;
#X obj 244 143 r \$0-trigger;
#X obj 244 167 random 10;
#X obj 243 224 - 5;
#X obj 280 224 del 500;
#X obj 201 267 del 1000;
#X obj 244 191 t b f;
#X obj 600 361 pack 0 1000;
#X obj 390 30 loadbang 23;
#X connect 1 0 0 0;
#X connect 1 0 39 0;
#X connect 3 0 4 0;
#X connect 4 0 5 0;
#X connect 5 0 6 0;
#X connect 6 0 23 0;
#X connect 6 1 8 0;
#X connect 6 2 7 0;
#X connect 7 0 1 0;
#X connect 8 0 7 1;
#X connect 9 0 7 1;
#X connect 10 0 33 1;
#X connect 11 0 17 0;
#X connect 12 0 16 0;
#X connect 13 0 14 0;
#X connect 14 0 21 0;
#X connect 15 0 12 0;
#X connect 15 0 18 0;
#X connect 16 0 13 0;
#X connect 17 0 14 1;
#X connect 18 0 11 0;
#X connect 19 0 24 0;
#X connect 20 0 18 1;
#X connect 21 0 27 0;
#X connect 22 0 21 1;
#X connect 23 0 9 0;
#X connect 24 0 15 0;
#X connect 25 0 0 0;
#X connect 25 0 3 0;
#X connect 27 0 10 0;
#X connect 28 0 27 1;
#X connect 29 0 30 0;
#X connect 29 1 32 0;
#X connect 30 0 47 0;
#X connect 32 0 28 0;
#X connect 33 0 26 0;
#X connect 34 0 33 0;
#X connect 35 0 34 0;
#X connect 36 0 47 1;
#X connect 37 0 34 0;
#X connect 38 0 37 0;
#X connect 40 0 29 0;
#X connect 41 0 42 0;
#X connect 42 0 46 0;
#X connect 43 0 38 1;
#X connect 44 0 38 0;
#X connect 44 0 45 0;
#X connect 45 0 35 0;
#X connect 46 0 44 0;
#X connect 46 1 43 0;
#X connect 47 0 28 0;
#X connect 48 0 19 0;
