#N canvas 629 76 450 482 12;
#X obj 25 428 tabwrite~ \$0-buf;
#X obj 68 400 bng 15 250 50 0 empty empty empty 17 7 0 10 -262144 -1
-1;
#X obj 51 13 array define \$0-buf 10000;
#X obj 68 192 env~ 64;
#X obj 68 216 > 80;
#X obj 68 240 sel 1;
#X obj 68 266 t b b b;
#X obj 60 360 spigot;
#X msg 113 304 0;
#X msg 47 321 1;
#X obj 205 411 hip~ 5;
#X obj 270 295 +~ 1;
#X obj 205 271 -~ 0.5;
#X obj 205 321 cos~;
#X obj 205 354 *~;
#X obj 206 209 phasor~;
#X obj 205 296 *~ 0.5;
#X obj 270 321 tabread4~ \$0-buf;
#X obj 270 270 *~ 226;
#X floatatom 206 120 5 0 0 0 - - -;
#X floatatom 305 236 5 0 0 0 - - -;
#X obj 205 382 *~;
#X obj 244 372 tgl 15 0 empty empty empty 17 7 0 10 -262144 -1 -1 0
1;
#X obj 119 58 random 60;
#X obj 47 297 del 50;
#X obj 206 144 sig~;
#X obj 206 173 +~;
#X obj 279 109 osc~ 1;
#X obj 279 133 *~ 5;
#X obj 25 163 inlet~;
#X obj 204 444 outlet~;
#X obj 119 82 + 20;
#X floatatom 126 215 5 0 0 0 - - -;
#X connect 1 0 0 0;
#X connect 3 0 4 0;
#X connect 4 0 5 0;
#X connect 5 0 6 0;
#X connect 6 0 24 0;
#X connect 6 1 8 0;
#X connect 6 2 7 0;
#X connect 7 0 1 0;
#X connect 7 0 23 0;
#X connect 8 0 7 1;
#X connect 9 0 7 1;
#X connect 10 0 30 0;
#X connect 11 0 17 0;
#X connect 12 0 16 0;
#X connect 13 0 14 0;
#X connect 14 0 21 0;
#X connect 15 0 12 0;
#X connect 15 0 18 0;
#X connect 16 0 13 0;
#X connect 17 0 14 1;
#X connect 18 0 11 0;
#X connect 19 0 25 0;
#X connect 19 0 15 0;
#X connect 20 0 18 1;
#X connect 21 0 10 0;
#X connect 22 0 21 1;
#X connect 23 0 31 0;
#X connect 24 0 9 0;
#X connect 25 0 26 0;
#X connect 27 0 28 0;
#X connect 28 0 26 1;
#X connect 29 0 0 0;
#X connect 29 0 3 0;
