#N canvas 0 58 884 503 12;
#X obj 587 114 inlet~;
#X obj 587 138 delwrite~ \$0-del 500;
#X obj 166 387 outlet~;
#X obj 15 137 delread4~ \$0-del;
#X floatatom 16 87 5 0 0 0 - - -;
#X obj 16 110 sig~;
#X obj 15 161 *~ 0.9;
#X obj 152 136 delread4~ \$0-del;
#X floatatom 153 86 5 0 0 0 - - -;
#X obj 153 109 sig~;
#X obj 152 160 *~ 0.9;
#X obj 15 188 clip~ -0.9 0.9;
#X obj 118 256 +~;
#X obj 152 186 clip~ -0.9 0.9;
#X obj 286 135 delread4~ \$0-del;
#X floatatom 287 85 5 0 0 0 - - -;
#X obj 287 108 sig~;
#X obj 286 159 *~ 0.9;
#X obj 286 185 clip~ -0.9 0.9;
#X obj 369 267 *~ 0.2;
#X obj 103 331 pitchshift;
#X floatatom 79 296 5 0 0 0 - - -;
#X floatatom 414 224 5 0 0 0 - - -;
#X obj 38 33 loadbang;
#X msg 38 57 150;
#X msg 433 116 0.8;
#X connect 0 0 1 0;
#X connect 3 0 6 0;
#X connect 4 0 5 0;
#X connect 5 0 3 0;
#X connect 6 0 11 0;
#X connect 7 0 10 0;
#X connect 8 0 9 0;
#X connect 9 0 7 0;
#X connect 10 0 13 0;
#X connect 11 0 12 0;
#X connect 12 0 19 0;
#X connect 12 0 20 1;
#X connect 14 0 17 0;
#X connect 15 0 16 0;
#X connect 16 0 14 0;
#X connect 17 0 18 0;
#X connect 19 0 1 0;
#X connect 20 0 2 0;
#X connect 21 0 20 0;
#X connect 22 0 19 1;
#X connect 23 0 24 0;
#X connect 23 0 25 0;
#X connect 24 0 4 0;
#X connect 25 0 22 0;
