#N canvas 210 167 1013 431 12;
#X obj 392 279 pack 0 0;
#X obj 196 214 f;
#X obj 196 238 + 1;
#X obj 196 262 % 10;
#X obj 706 109 until;
#X msg 704 137 4;
#X floatatom 621 79 5 0 0 0 - - -;
#X msg 621 102 set \$1;
#X msg 755 123 1000;
#X msg 701 46 8;
#X obj 828 72 print ----;
#X obj 701 72 t b f b;
#X msg 746 44 7;
#X msg 781 73 _;
#X obj 283 118 comport 9600;
#X msg 251 61 open 4;
#X msg 326 60 close;
#X msg 184 63 devices;
#X obj 224 146 print;
#X obj 282 207 t b f b;
#X obj 363 182 sel 255;
#X floatatom 209 112 5 0 0 0 - - -;
#X obj 282 164 moses 251;
#X obj 168 169 bng 15 250 50 0 empty empty empty 17 7 0 10 -262144
-1 -1;
#X msg 235 184 0;
#X obj 392 304 route 1 2 3 4 5 6 7 8 9 0, f 56;
#X floatatom 373 336 5 0 0 0 - - -;
#X floatatom 419 336 5 0 0 0 - - -;
#X floatatom 462 336 5 0 0 0 - - -;
#X floatatom 505 335 5 0 0 0 - - -;
#X floatatom 552 338 5 0 0 0 - - -;
#X floatatom 595 337 5 0 0 0 - - -;
#X floatatom 641 338 5 0 0 0 - - -;
#X floatatom 684 337 5 0 0 0 - - -;
#X floatatom 732 340 5 0 0 0 - - -;
#X floatatom 778 341 5 0 0 0 - - -;
#X floatatom 821 340 5 0 0 0 - - -;
#X obj 419 359 > 251;
#X obj 419 383 sel 1;
#X obj 418 409 bng 15 250 50 0 empty empty empty 17 7 0 10 -262144
-1 -1;
#X connect 0 0 25 0;
#X connect 1 0 2 0;
#X connect 2 0 3 0;
#X connect 3 0 1 1;
#X connect 3 0 0 0;
#X connect 4 0 5 0;
#X connect 6 0 7 0;
#X connect 7 0 5 0;
#X connect 9 0 11 0;
#X connect 11 0 8 0;
#X connect 11 1 4 0;
#X connect 11 2 13 0;
#X connect 12 0 11 0;
#X connect 13 0 10 0;
#X connect 14 0 22 0;
#X connect 15 0 14 0;
#X connect 16 0 14 0;
#X connect 17 0 14 0;
#X connect 19 0 1 0;
#X connect 19 1 0 1;
#X connect 20 0 24 0;
#X connect 21 0 22 0;
#X connect 22 0 19 0;
#X connect 22 1 20 0;
#X connect 23 0 1 0;
#X connect 24 0 1 1;
#X connect 25 0 26 0;
#X connect 25 1 27 0;
#X connect 25 2 28 0;
#X connect 25 3 29 0;
#X connect 25 4 30 0;
#X connect 25 5 31 0;
#X connect 25 6 32 0;
#X connect 25 7 33 0;
#X connect 25 8 34 0;
#X connect 25 9 35 0;
#X connect 25 10 36 0;
#X connect 27 0 37 0;
#X connect 37 0 38 0;
#X connect 38 0 39 0;
