#N canvas 210 167 925 431 12;
#X obj 392 279 pack 0 0;
#X obj 196 214 f;
#X obj 196 238 + 1;
#X msg 235 184 0;
#X obj 196 262 % 10;
#X floatatom 391 351 5 0 0 0 - - -;
#X floatatom 436 351 5 0 0 0 - - -;
#X floatatom 477 351 5 0 0 0 - - -;
#X floatatom 518 352 5 0 0 0 - - -;
#X floatatom 562 353 5 0 0 0 - - -;
#X floatatom 605 352 5 0 0 0 - - -;
#X floatatom 645 355 5 0 0 0 - - -;
#X floatatom 689 357 5 0 0 0 - - -;
#X floatatom 785 357 5 0 0 0 - - -;
#X obj 706 109 until;
#X msg 704 137 4;
#X floatatom 621 79 5 0 0 0 - - -;
#X msg 621 102 set \$1;
#X obj 392 304 route 1 2 3 4 5 6 7 8, f 56;
#X msg 755 123 1000;
#X obj 390 385 print 1;
#X obj 448 387 print 2;
#X obj 505 387 print 3;
#X obj 563 389 print 4;
#X obj 622 388 print 5;
#X obj 680 390 print 6;
#X obj 737 390 print 7;
#X obj 795 392 print 8;
#X msg 701 46 8;
#X obj 828 72 print ----;
#X obj 701 72 t b f b;
#X msg 746 44 7;
#X msg 781 73 _;
#X obj 283 118 comport 9600;
#X msg 251 61 open 4;
#X msg 326 60 close;
#X msg 184 63 devices;
#X obj 224 146 print;
#X obj 282 207 t b f b;
#X obj 379 222 print ----;
#X obj 282 164 moses 250;
#X obj 363 182 sel 255;
#X connect 0 0 18 0;
#X connect 1 0 2 0;
#X connect 2 0 4 0;
#X connect 3 0 1 1;
#X connect 4 0 1 1;
#X connect 4 0 0 0;
#X connect 14 0 15 0;
#X connect 16 0 17 0;
#X connect 17 0 15 0;
#X connect 18 0 5 0;
#X connect 18 0 20 0;
#X connect 18 1 6 0;
#X connect 18 1 21 0;
#X connect 18 2 7 0;
#X connect 18 2 22 0;
#X connect 18 3 8 0;
#X connect 18 3 23 0;
#X connect 18 4 9 0;
#X connect 18 4 24 0;
#X connect 18 5 10 0;
#X connect 18 5 25 0;
#X connect 18 6 11 0;
#X connect 18 6 26 0;
#X connect 18 7 12 0;
#X connect 18 7 27 0;
#X connect 18 8 13 0;
#X connect 28 0 30 0;
#X connect 30 0 19 0;
#X connect 30 1 14 0;
#X connect 30 2 32 0;
#X connect 31 0 30 0;
#X connect 32 0 29 0;
#X connect 33 0 40 0;
#X connect 34 0 33 0;
#X connect 35 0 33 0;
#X connect 36 0 33 0;
#X connect 38 0 1 0;
#X connect 38 1 0 1;
#X connect 38 2 39 0;
#X connect 40 0 38 0;
#X connect 40 1 41 0;
#X connect 41 0 3 0;
