#N canvas 413 23 816 513 12;
#X declare -path ./audio;
#X obj 94 332 hip~ 5;
#X obj 159 216 +~ 1;
#X obj 94 192 -~ 0.5;
#X obj 94 242 cos~;
#X obj 94 275 *~;
#X obj 95 130 phasor~;
#X obj 94 217 *~ 0.5;
#X obj 159 191 *~ 226;
#X floatatom 95 95 5 0 0 0 - - -;
#X floatatom 194 157 5 0 0 0 - - -;
#X obj 94 303 *~;
#X floatatom 219 214 5 0 0 0 - - -;
#X obj 318 142 inlet;
#X obj 96 45 loadbang;
#X obj 319 170 t b b b;
#X obj 314 281 pack 1 20;
#X obj 314 305 line~;
#X obj 298 229 del \$2;
#X msg 357 254 1;
#X msg 299 256 0;
#X obj 367 228 r decay;
#X obj 320 202 random 5000;
#X obj 161 130 r tablechange;
#X obj 94 70 f \$3;
#X obj 94 360 dac~;
#X obj 494 42 array define rt;
#X obj 501 171 soundfiler;
#X obj 500 195 t f f;
#X obj 532 221 / 44.1;
#X text 587 194 calculate the soundfile length in ms, f 20;
#X obj 501 96 bng 15 250 50 0 empty empty empty 17 7 0 10 -262144 -1
-1;
#X obj 532 246 s filelength;
#X obj 501 118 symbol rt;
#X obj 159 242 tabread4~ rt;
#X msg 501 143 read -resize klink_glass.wav \$1;
#X obj 628 10 declare -path ./audio;
#X connect 0 0 24 0;
#X connect 0 0 24 1;
#X connect 1 0 33 0;
#X connect 2 0 6 0;
#X connect 3 0 4 0;
#X connect 4 0 10 0;
#X connect 5 0 2 0;
#X connect 5 0 7 0;
#X connect 6 0 3 0;
#X connect 7 0 1 0;
#X connect 8 0 5 0;
#X connect 9 0 7 1;
#X connect 10 0 0 0;
#X connect 11 0 1 1;
#X connect 12 0 14 0;
#X connect 13 0 23 0;
#X connect 14 0 17 0;
#X connect 14 1 18 0;
#X connect 14 2 21 0;
#X connect 15 0 16 0;
#X connect 16 0 10 1;
#X connect 17 0 19 0;
#X connect 18 0 15 0;
#X connect 19 0 15 0;
#X connect 20 0 17 1;
#X connect 21 0 11 0;
#X connect 22 0 33 0;
#X connect 23 0 8 0;
#X connect 26 0 27 0;
#X connect 27 1 28 0;
#X connect 28 0 31 0;
#X connect 30 0 32 0;
#X connect 32 0 34 0;
#X connect 33 0 4 1;
#X connect 34 0 26 0;
