#N canvas 413 23 619 513 12;
#X obj 94 332 hip~ 5;
#X obj 159 216 +~ 1;
#X obj 94 192 -~ 0.5;
#X obj 94 242 cos~;
#X obj 94 275 *~;
#X obj 95 130 phasor~;
#X obj 94 217 *~ 0.5;
#X obj 159 191 *~ 226;
#X floatatom 95 95 5 0 0 0 - - -;
#X floatatom 194 157 5 0 0 0 - - -;
#X obj 94 303 *~;
#X obj 94 360 outlet~;
#X floatatom 219 214 5 0 0 0 - - -;
#X obj 318 142 inlet;
#X obj 96 45 loadbang;
#X obj 159 242 tabread4~ \$1;
#X obj 319 170 t b b b;
#X obj 314 281 pack 1 20;
#X obj 314 305 line~;
#X obj 298 229 del \$2;
#X msg 357 254 1;
#X msg 299 256 0;
#X obj 367 228 r decay;
#X obj 320 202 random 5000;
#X msg 95 71 40;
#X connect 0 0 11 0;
#X connect 1 0 15 0;
#X connect 2 0 6 0;
#X connect 3 0 4 0;
#X connect 4 0 10 0;
#X connect 5 0 2 0;
#X connect 5 0 7 0;
#X connect 6 0 3 0;
#X connect 7 0 1 0;
#X connect 8 0 5 0;
#X connect 9 0 7 1;
#X connect 10 0 0 0;
#X connect 12 0 1 1;
#X connect 13 0 16 0;
#X connect 14 0 24 0;
#X connect 15 0 4 1;
#X connect 16 0 19 0;
#X connect 16 1 20 0;
#X connect 16 2 23 0;
#X connect 17 0 18 0;
#X connect 18 0 10 1;
#X connect 19 0 21 0;
#X connect 20 0 17 0;
#X connect 21 0 17 0;
#X connect 22 0 19 1;
#X connect 23 0 12 0;
#X connect 24 0 8 0;
