#N canvas 0 22 664 644 12;
#X obj 388 332 soundfiler;
#X obj 66 440 f;
#X obj 66 464 pack 0 0;
#X obj 387 356 t f f;
#X obj 34 335 bng 15 250 50 0 empty empty empty 17 7 0 10 -262144 -1
-1;
#X obj 419 382 / 44.1;
#X obj 34 487 line~;
#X obj 34 406 del;
#X obj 34 355 t b b;
#X msg 34 433 0;
#X obj 34 310 spigot;
#X obj 34 232 t b b b;
#X obj 34 257 del;
#X msg 64 257 0;
#X msg 34 282 1;
#X text 474 355 calculate the soundfile length in ms, f 20;
#X obj 388 260 symbol \$1;
#X obj 388 215 loadbang;
#X obj 166 243 loadbang;
#X msg 166 267 1;
#X obj 34 514 tabread4~ \$0-buffer;
#X obj 428 109 array define \$0-buffer;
#X obj 461 261 symbol \$0-buffer;
#X obj 388 282 pack s s;
#X msg 388 304 read -resize \$1 \$2;
#X obj 419 407 s \$0-filelength;
#X obj 136 389 r \$0-filelength;
#X obj 131 188 r \$0-filelength;
#X obj 114 347 r \$0-filelength;
#X obj 478 229 bng 15 250 50 0 empty empty empty 17 7 0 10 -262144
-1 -1;
#X obj 64 25 inlet;
#X obj 369 191 r \$2;
#X obj 388 237 t a b;
#X obj 291 426 f;
#X obj 291 450 pack 0 0;
#X obj 259 321 bng 15 250 50 0 empty empty empty 17 7 0 10 -262144
-1 -1;
#X obj 259 473 line~;
#X obj 259 392 del;
#X obj 259 341 t b b;
#X msg 259 419 0;
#X obj 259 296 spigot;
#X obj 259 218 t b b b;
#X obj 259 243 del;
#X msg 289 243 0;
#X msg 259 268 1;
#X obj 259 500 tabread4~ \$0-buffer;
#X obj 65 98 f;
#X obj 124 85 + 1;
#X msg 12 62 0;
#X obj 65 127 sel 0;
#X obj 124 109 % 2;
#X obj 161 593 hip~ 5;
#X obj 161 617 outlet~;
#X msg 164 472 4300;
#X connect 0 0 3 0;
#X connect 1 0 2 0;
#X connect 2 0 6 0;
#X connect 3 0 1 1;
#X connect 3 0 33 1;
#X connect 3 1 5 0;
#X connect 4 0 8 0;
#X connect 5 0 25 0;
#X connect 6 0 20 0;
#X connect 7 0 9 0;
#X connect 8 0 7 0;
#X connect 8 1 1 0;
#X connect 9 0 6 0;
#X connect 10 0 4 0;
#X connect 11 0 12 0;
#X connect 11 1 13 0;
#X connect 11 2 10 0;
#X connect 12 0 14 0;
#X connect 13 0 10 1;
#X connect 14 0 10 1;
#X connect 16 0 23 0;
#X connect 17 0 32 0;
#X connect 18 0 19 0;
#X connect 19 0 10 1;
#X connect 19 0 40 1;
#X connect 20 0 51 0;
#X connect 22 0 23 1;
#X connect 23 0 24 0;
#X connect 24 0 0 0;
#X connect 26 0 2 1;
#X connect 26 0 34 1;
#X connect 27 0 12 1;
#X connect 27 0 42 1;
#X connect 28 0 7 1;
#X connect 28 0 37 1;
#X connect 29 0 32 0;
#X connect 30 0 46 0;
#X connect 31 0 32 0;
#X connect 32 0 16 0;
#X connect 32 1 22 0;
#X connect 33 0 34 0;
#X connect 34 0 36 0;
#X connect 35 0 38 0;
#X connect 36 0 45 0;
#X connect 37 0 39 0;
#X connect 38 0 37 0;
#X connect 38 1 33 0;
#X connect 39 0 36 0;
#X connect 40 0 35 0;
#X connect 41 0 42 0;
#X connect 41 1 43 0;
#X connect 41 2 40 0;
#X connect 42 0 44 0;
#X connect 43 0 40 1;
#X connect 44 0 40 1;
#X connect 45 0 51 0;
#X connect 46 0 47 0;
#X connect 46 0 49 0;
#X connect 47 0 50 0;
#X connect 48 0 46 1;
#X connect 49 0 11 0;
#X connect 49 1 41 0;
#X connect 50 0 46 1;
#X connect 51 0 52 0;
#X connect 53 0 20 1;
#X connect 53 0 45 1;
