#N canvas 413 48 595 516 12;
#X obj 249 308 soundfiler;
#X obj 56 350 f;
#X obj 56 374 pack 0 0;
#X obj 248 332 t f f;
#X obj 24 245 bng 15 250 50 0 empty empty empty 17 7 0 10 -262144 -1
-1;
#X obj 280 358 / 44.1;
#X obj 24 397 line~;
#X obj 24 316 del;
#X obj 24 265 t b b;
#X msg 24 343 0;
#X obj 24 37 env~ 64;
#X obj 24 116 sel 1;
#X obj 24 64 spigot;
#X obj 79 60 tgl 15 0 empty empty empty 17 7 0 10 -262144 -1 -1 1 1
;
#X obj 24 220 spigot;
#X obj 24 142 t b b b;
#X obj 24 167 del;
#X msg 54 167 0;
#X msg 24 192 1;
#X text 103 41 turn input off;
#X text 60 91 trigger theshold;
#X text 88 143 avoid that more than 1 bang goes thru at a time. The
first bang goes thru \, the second closes the gate and the third opens
the gate again after the sound finished playing;
#X text 335 331 calculate the soundfile length in ms, f 20;
#X text 67 240 trigger sound and reset line~ after sound is played
, f 19;
#X obj 249 236 symbol \$1;
#X obj 24 451 outlet~;
#X obj 24 91 > \$2;
#X obj 24 13 inlet~;
#X obj 249 191 loadbang;
#X obj 79 -8 loadbang;
#X msg 79 16 1;
#X obj 24 424 tabread4~ \$0-buffer;
#X obj 418 19 array define \$0-buffer;
#X obj 322 237 symbol \$0-buffer;
#X obj 249 258 pack s s;
#X msg 249 280 read -resize \$1 \$2;
#X obj 249 213 t b b;
#X obj 280 383 s \$0-filelength;
#X obj 109 350 r \$0-filelength;
#X obj 69 117 r \$0-filelength;
#X obj 42 291 r \$0-filelength;
#X obj 339 205 bng 15 250 50 0 empty empty empty 17 7 0 10 -262144
-1 -1;
#X connect 0 0 3 0;
#X connect 1 0 2 0;
#X connect 2 0 6 0;
#X connect 3 0 1 1;
#X connect 3 1 5 0;
#X connect 4 0 8 0;
#X connect 5 0 37 0;
#X connect 6 0 31 0;
#X connect 7 0 9 0;
#X connect 8 0 7 0;
#X connect 8 1 1 0;
#X connect 9 0 6 0;
#X connect 10 0 12 0;
#X connect 11 0 15 0;
#X connect 12 0 26 0;
#X connect 13 0 12 1;
#X connect 14 0 4 0;
#X connect 15 0 16 0;
#X connect 15 1 17 0;
#X connect 15 2 14 0;
#X connect 16 0 18 0;
#X connect 17 0 14 1;
#X connect 18 0 14 1;
#X connect 24 0 34 0;
#X connect 26 0 11 0;
#X connect 27 0 10 0;
#X connect 28 0 36 0;
#X connect 29 0 30 0;
#X connect 30 0 13 0;
#X connect 30 0 14 1;
#X connect 31 0 25 0;
#X connect 33 0 34 1;
#X connect 34 0 35 0;
#X connect 35 0 0 0;
#X connect 36 0 24 0;
#X connect 36 1 33 0;
#X connect 38 0 2 1;
#X connect 39 0 16 1;
#X connect 40 0 7 1;
#X connect 41 0 36 0;
