#N canvas 0 22 450 300 12;
#X obj 206 141 vstplugin~;
#X msg 244 87 search -a;
#X symbolatom 148 39 25 0 0 0 - - -;
#X msg 148 62 open \$1;
#X msg 37 37 info;
#X obj 155 9 bng 15 250 50 0 empty empty empty 17 7 0 10 -262144 -1
-1;
#X connect 1 0 0 0;
#X connect 2 0 3 0;
#X connect 3 0 0 0;
#X connect 4 0 0 0;
#X connect 5 0 2 0;
