#N canvas 0 22 450 300 12;
#X obj 163 16 inlet~;
#X obj 163 100 env~ 64;
#X obj 163 178 pack 0 20;
#X obj 163 202 line~;
#X obj 163 226 *~;
#X obj 163 262 outlet~;
#X obj 163 44 gate~ 60 20 100;
#X obj 163 73 bp~ \$1 10;
#X obj 210 202 osc~ \$1;
#X obj 163 151 clip 0 1;
#X obj 163 124 / 300;
#X connect 0 0 6 0;
#X connect 1 0 10 0;
#X connect 2 0 3 0;
#X connect 3 0 4 0;
#X connect 4 0 5 0;
#X connect 6 0 7 0;
#X connect 7 0 1 0;
#X connect 8 0 4 1;
#X connect 9 0 2 0;
#X connect 10 0 9 0;
