#N canvas 0 22 587 317 12;
#X obj 241 43 inlet~;
#X obj 281 241 outlet~;
#X floatatom 475 52 5 0 0 0 - - -;
#X obj 475 75 mtof;
#X floatatom 475 99 5 0 0 0 - - -;
#X obj 60 155 voc_voice 261.6;
#X obj 174 155 voc_voice 329.6;
#X obj 290 155 voc_voice 391.9;
#X obj 420 153 voc_voice 523.2;
#X connect 0 0 5 0;
#X connect 0 0 6 0;
#X connect 0 0 7 0;
#X connect 0 0 8 0;
#X connect 2 0 3 0;
#X connect 3 0 4 0;
#X connect 5 0 1 0;
#X connect 6 0 1 0;
#X connect 7 0 1 0;
#X connect 8 0 1 0;
