#N canvas 87 45 632 341 12;
#X obj 257 173 f;
#X obj 298 164 + 1;
#X obj 257 245 sel 0 1 2 3 4 5 6 7;
#X obj 240 281 bng 15 250 50 0 empty empty empty 17 7 0 10 -262144
-1 -1;
#X obj 263 283 bng 15 250 50 0 empty empty empty 17 7 0 10 -262144
-1 -1;
#X obj 286 282 bng 15 250 50 0 empty empty empty 17 7 0 10 -262144
-1 -1;
#X obj 309 284 bng 15 250 50 0 empty empty empty 17 7 0 10 -262144
-1 -1;
#X obj 331 281 bng 15 250 50 0 empty empty empty 17 7 0 10 -262144
-1 -1;
#X obj 354 283 bng 15 250 50 0 empty empty empty 17 7 0 10 -262144
-1 -1;
#X obj 377 282 bng 15 250 50 0 empty empty empty 17 7 0 10 -262144
-1 -1;
#X obj 400 284 bng 15 250 50 0 empty empty empty 17 7 0 10 -262144
-1 -1;
#X obj 298 188 % 8;
#X obj 230 4 inlet;
#X obj 229 41 route bang;
#X obj 71 355 outlet;
#X obj 124 357 outlet;
#X obj 179 357 outlet;
#X obj 232 359 outlet;
#X obj 287 355 outlet;
#X obj 340 357 outlet;
#X obj 395 357 outlet;
#X obj 448 359 outlet;
#X obj 138 85 t b b b;
#X obj 130 179 spigot;
#X msg 183 123 0;
#X msg 117 140 1;
#X obj 117 116 del 50;
#X text 202 81 avoid double triggering, f 17;
#X connect 0 0 1 0;
#X connect 0 0 2 0;
#X connect 1 0 11 0;
#X connect 2 0 3 0;
#X connect 2 1 4 0;
#X connect 2 2 5 0;
#X connect 2 3 6 0;
#X connect 2 4 7 0;
#X connect 2 5 8 0;
#X connect 2 6 9 0;
#X connect 2 7 10 0;
#X connect 3 0 14 0;
#X connect 4 0 15 0;
#X connect 5 0 16 0;
#X connect 6 0 17 0;
#X connect 7 0 18 0;
#X connect 8 0 19 0;
#X connect 9 0 20 0;
#X connect 10 0 21 0;
#X connect 11 0 0 1;
#X connect 12 0 13 0;
#X connect 13 0 22 0;
#X connect 13 1 0 1;
#X connect 22 0 26 0;
#X connect 22 1 24 0;
#X connect 22 2 23 0;
#X connect 23 0 0 0;
#X connect 24 0 23 1;
#X connect 25 0 23 1;
#X connect 26 0 25 0;
