#N canvas 234 412 641 300 12;
#X obj 219 210 vstplugin~;
#X symbolatom 78 43 25 0 0 0 - - -;
#X msg 78 66 open \$1;
#X obj 79 16 bng 15 250 50 0 empty empty empty 17 7 0 10 -262144 -1
-1;
#X msg 20 90 vis \$1;
#X obj 28 63 tgl 15 0 empty empty empty 17 7 0 10 -262144 -1 -1 1 1
;
#X msg 21 209 param_list;
#X obj 316 51 noise~;
#X obj 314 173 *~;
#X obj 400 18 metro 1000;
#X msg 436 92 1;
#X obj 400 44 t b b;
#X obj 400 115 pack 0 20;
#X msg 400 91 0;
#X obj 400 68 del 40;
#X obj 218 246 dac~;
#X obj 365 23 tgl 15 0 empty empty empty 17 7 0 10 -262144 -1 -1 0
1;
#X obj 400 139 line~;
#X msg 397 210 print;
#X msg 269 130 list;
#X msg 174 91 search -n;
#X connect 0 0 15 0;
#X connect 0 0 15 1;
#X connect 1 0 2 0;
#X connect 2 0 0 0;
#X connect 3 0 1 0;
#X connect 4 0 0 0;
#X connect 5 0 4 0;
#X connect 6 0 0 0;
#X connect 7 0 8 0;
#X connect 8 0 0 0;
#X connect 9 0 11 0;
#X connect 10 0 12 0;
#X connect 11 0 14 0;
#X connect 11 1 10 0;
#X connect 12 0 17 0;
#X connect 13 0 12 0;
#X connect 14 0 13 0;
#X connect 16 0 9 0;
#X connect 17 0 8 1;
#X connect 18 0 0 0;
#X connect 19 0 0 0;
#X connect 20 0 0 0;
