#N canvas 613 76 450 300 12;
#X obj 27 27 inlet~;
#X obj 27 51 +~ 1;
#X obj 27 75 *~ 127.5;
#X obj 27 123 expr~ int($v1);
#X obj 27 147 /~ 127.5;
#X obj 27 171 -~ 1;
#X obj 27 195 outlet~;
#X obj 27 99 clip~ 0 \$1;
#X text 74 48 set signal range to 0 - 2;
#X text 94 73 Multiply to get an 8 bit range;
#X text 109 100 set the amount of crushing;
#X text 137 124 quantize to int;
#X connect 0 0 1 0;
#X connect 1 0 2 0;
#X connect 2 0 7 0;
#X connect 3 0 4 0;
#X connect 4 0 5 0;
#X connect 5 0 6 0;
#X connect 7 0 3 0;
