#N canvas 216 166 724 435 12;
#X obj 104 237 osc~ 440;
#X obj 181 514 tgl 15 0 empty empty empty 17 7 0 10 -262144 -1 -1 0
1;
#X obj 107 501 *~;
#X obj 104 151 osc~ 220;
#X obj 104 178 *~ 100;
#X obj 104 207 +~ 300;
#X obj 107 442 *~;
#X obj 388 242 pack 0 20;
#X obj 388 266 line~;
#X obj 353 155 t b b;
#X obj 297 240 pack 0 200;
#X msg 411 188 1;
#X msg 297 215 0;
#X obj 385 133 bng 15 250 50 0 empty empty empty 17 7 0 10 -262144
-1 -1;
#X obj 207 44 t b b b b b;
#X obj 209 22 bng 15 250 50 0 empty empty empty 17 7 0 10 -262144 -1
-1;
#X obj 197 105 random 200;
#X obj 197 129 + 100;
#X obj 198 158 random 200;
#X obj 198 182 + 100;
#X obj 198 206 random 300;
#X obj 199 229 + 200;
#X msg 154 121 0;
#X obj 298 192 del 100;
#X obj 487 261 noise~;
#X obj 107 471 +~;
#X obj 411 328 *~;
#X obj 411 352 *~ 0.05;
#X obj 458 294 lop~ 4000;
#X obj 233 9 inlet;
#X obj 107 523 outlet~;
#X obj 181 534 * 1;
#X obj 241 484 loadbang;
#X msg 241 508 1;
#X connect 0 0 6 0;
#X connect 1 0 31 0;
#X connect 2 0 30 0;
#X connect 3 0 4 0;
#X connect 4 0 5 0;
#X connect 5 0 0 0;
#X connect 6 0 25 0;
#X connect 7 0 8 0;
#X connect 8 0 6 1;
#X connect 8 0 26 0;
#X connect 9 0 23 0;
#X connect 9 1 11 0;
#X connect 10 0 8 0;
#X connect 11 0 7 0;
#X connect 12 0 10 0;
#X connect 13 0 9 0;
#X connect 14 2 13 0;
#X connect 14 3 22 0;
#X connect 14 4 16 0;
#X connect 14 4 18 0;
#X connect 14 4 20 0;
#X connect 15 0 14 0;
#X connect 16 0 17 0;
#X connect 17 0 3 0;
#X connect 18 0 19 0;
#X connect 19 0 4 1;
#X connect 20 0 21 0;
#X connect 21 0 5 1;
#X connect 22 0 3 1;
#X connect 22 0 0 1;
#X connect 23 0 12 0;
#X connect 24 0 28 0;
#X connect 25 0 2 0;
#X connect 26 0 27 0;
#X connect 27 0 25 1;
#X connect 28 0 26 1;
#X connect 29 0 14 0;
#X connect 31 0 2 1;
#X connect 32 0 33 0;
#X connect 33 0 1 0;
