#N canvas 347 57 752 552 10;
#X floatatom 546 361 15 0 0 0 - - -;
#X obj 80 245 samphold~;
#X obj 45 191 phasor~;
#X obj 46 338 *~;
#X obj 209 277 samphold~;
#X obj 176 353 *~;
#X obj 175 207 +~ 0.5;
#X obj 175 230 wrap~;
#X obj 528 305 t b f;
#X obj 649 363 t b f;
#X floatatom 647 343 5 0 0 0 - - -;
#X obj 546 387 expr (pow(2 \, ($f2/12)) - 1) * (44100 / $f1);
#X obj 604 410 / 44.1;
#X floatatom 604 433 5 0 0 0 - - -;
#X floatatom 546 410 5 0 0 0 - - -;
#X obj 546 431 s signal;
#X obj 45 168 r signal;
#X obj 120 187 sig~;
#X obj 604 455 s sample;
#X obj 120 163 r sample;
#X obj 44 215 *~ -1;
#X obj 45 238 +~ 1;
#X obj 175 253 *~ -1;
#X obj 176 276 +~ 1;
#X obj 46 261 *~;
#X obj 175 302 *~;
#N canvas 0 0 450 300 window 0;
#X obj 246 92 cos~;
#X obj 199 89 sig~ 1;
#X obj 218 116 -~;
#X obj 218 144 *~ 0.5;
#X obj 210 43 inlet~;
#X obj 221 178 outlet~;
#X connect 0 0 2 1;
#X connect 1 0 2 0;
#X connect 2 0 3 0;
#X connect 3 0 5 0;
#X connect 4 0 0 0;
#X restore 61 309 pd window;
#N canvas 0 0 450 300 window 0;
#X obj 246 92 cos~;
#X obj 199 89 sig~ 1;
#X obj 218 116 -~;
#X obj 218 144 *~ 0.5;
#X obj 210 43 inlet~;
#X obj 221 178 outlet~;
#X connect 0 0 2 1;
#X connect 1 0 2 0;
#X connect 2 0 3 0;
#X connect 3 0 5 0;
#X connect 4 0 0 0;
#X restore 267 328 pd window;
#X obj 335 236 *~;
#X obj 423 225 inlet~;
#X obj 46 371 outlet~;
#X obj 335 153 tgl 15 0 empty empty empty 17 7 0 10 -262144 -1 -1 1
1;
#X text 361 150 Feedback;
#X obj 450 75 loadbang;
#X msg 359 116 1;
#X obj 639 123 inlet;
#X obj 175 325 vd~ \$0-voice;
#X obj 362 265 delwrite~ \$0-voice 5000;
#X obj 334 206 r~ \$0-feedback;
#X obj 176 384 s~ \$0-feedback;
#X obj 47 288 vd~ \$0-voice;
#X obj 607 235 random 3000;
#X obj 607 256 + 300;
#X obj 662 268 random 40;
#X obj 662 292 - 12;
#X connect 0 0 11 0;
#X connect 0 0 12 0;
#X connect 1 0 24 1;
#X connect 2 0 1 1;
#X connect 2 0 6 0;
#X connect 2 0 20 0;
#X connect 2 0 26 0;
#X connect 3 0 30 0;
#X connect 4 0 25 1;
#X connect 5 0 30 0;
#X connect 5 0 39 0;
#X connect 6 0 7 0;
#X connect 7 0 4 1;
#X connect 7 0 22 0;
#X connect 7 0 27 0;
#X connect 8 0 10 0;
#X connect 8 0 44 0;
#X connect 8 1 0 0;
#X connect 9 0 0 0;
#X connect 9 1 11 1;
#X connect 10 0 9 0;
#X connect 11 0 14 0;
#X connect 12 0 13 0;
#X connect 13 0 18 0;
#X connect 14 0 15 0;
#X connect 16 0 2 0;
#X connect 17 0 1 0;
#X connect 17 0 4 0;
#X connect 19 0 17 0;
#X connect 20 0 21 0;
#X connect 21 0 24 0;
#X connect 22 0 23 0;
#X connect 23 0 25 0;
#X connect 24 0 40 0;
#X connect 25 0 36 0;
#X connect 26 0 3 1;
#X connect 27 0 5 1;
#X connect 28 0 37 0;
#X connect 29 0 37 0;
#X connect 31 0 28 1;
#X connect 33 0 34 0;
#X connect 33 0 41 0;
#X connect 33 0 43 0;
#X connect 34 0 31 0;
#X connect 35 0 41 0;
#X connect 35 0 43 0;
#X connect 36 0 5 0;
#X connect 38 0 28 0;
#X connect 40 0 3 0;
#X connect 41 0 42 0;
#X connect 42 0 8 0;
#X connect 43 0 44 0;
#X connect 44 0 10 0;
#X coords 0 552 1 551 100 170 0;
