#N canvas 265 34 884 503 12;
#X obj 235 424 inlet~;
#X obj 235 448 delwrite~ \$0-del 500;
#X obj 437 457 outlet~;
#X obj 286 207 delread4~ \$0-del;
#X floatatom 287 157 5 0 0 0 - - -;
#X obj 287 180 sig~;
#X obj 286 231 *~ 0.9;
#X obj 454 210 delread4~ \$0-del;
#X floatatom 455 160 5 0 0 0 - - -;
#X obj 455 183 sig~;
#X obj 286 258 clip~ -0.9 0.9;
#X obj 376 391 +~;
#X obj 454 260 clip~ -0.9 0.9;
#X obj 588 209 delread4~ \$0-del;
#X floatatom 589 159 5 0 0 0 - - -;
#X obj 589 182 sig~;
#X obj 588 233 *~ 0.9;
#X obj 588 259 clip~ -0.9 0.9;
#X obj 290 399 *~ 0.2;
#X obj 402 32 route 1 2 3;
#X obj 454 234 *~ 0.5;
#X obj 344 97 t f f;
#X obj 290 303 *~;
#X obj 344 145 pack 0 20;
#X obj 344 169 line~;
#X obj 344 121 clip 0 0.8;
#X obj 500 103 t f f;
#X obj 500 151 pack 0 20;
#X obj 500 175 line~;
#X obj 500 127 clip 0 0.8;
#X obj 633 110 t f f;
#X obj 633 158 pack 0 20;
#X obj 633 182 line~;
#X obj 633 134 clip 0 0.8;
#X obj 424 325 *~;
#X obj 537 330 *~;
#X floatatom 106 119 5 0 0 0 - - -;
#X floatatom 106 141 5 0 0 0 - - -;
#X floatatom 107 163 5 0 0 0 - - -;
#X obj 109 39 loadbang;
#X msg 109 63 150;
#X connect 0 0 1 0;
#X connect 3 0 6 0;
#X connect 4 0 5 0;
#X connect 5 0 3 0;
#X connect 6 0 10 0;
#X connect 7 0 20 0;
#X connect 8 0 9 0;
#X connect 9 0 7 0;
#X connect 10 0 22 0;
#X connect 11 0 18 0;
#X connect 11 0 2 0;
#X connect 12 0 34 0;
#X connect 13 0 16 0;
#X connect 14 0 15 0;
#X connect 15 0 13 0;
#X connect 16 0 17 0;
#X connect 17 0 35 0;
#X connect 18 0 1 0;
#X connect 19 0 21 0;
#X connect 19 1 26 0;
#X connect 19 2 30 0;
#X connect 20 0 12 0;
#X connect 21 0 25 0;
#X connect 21 1 4 0;
#X connect 22 0 11 0;
#X connect 23 0 24 0;
#X connect 24 0 22 1;
#X connect 25 0 23 0;
#X connect 26 0 29 0;
#X connect 27 0 28 0;
#X connect 28 0 34 1;
#X connect 29 0 27 0;
#X connect 30 0 33 0;
#X connect 31 0 32 0;
#X connect 32 0 35 1;
#X connect 33 0 31 0;
#X connect 34 0 11 1;
#X connect 35 0 11 1;
#X connect 36 0 21 0;
#X connect 37 0 26 0;
#X connect 38 0 30 0;
#X connect 39 0 40 0;
#X connect 40 0 36 0;
#X coords 0 -1 1 1 85 85 1 100 100;
