#N canvas 794 157 450 300 12;
#X obj 171 99 inlet;
#X obj 171 171 outlet;
#X obj 259 172 outlet;
#X obj 269 92 inlet;
#X obj 119 45 f \$1;
#X obj 171 123 makenote \$2 \$3;
#X connect 0 0 5 0;
#X connect 3 0 5 2;
#X connect 5 0 1 0;
#X connect 5 1 2 0;
