#N canvas 0 22 450 429 12;
#X obj 38 25 inlet~;
#X obj 38 352 *~;
#X obj 38 376 outlet~;
#X obj 64 92 env~ 64;
#X obj 64 302 line~;
#X obj 64 142 sel 1;
#X obj 64 118 > \$1;
#X text 106 117 threshold 0 - 100;
#X msg 64 176 1;
#X obj 64 205 pack 0 \$2;
#X obj 118 229 del \$3;
#X msg 118 254 0;
#X obj 118 279 pack 0 \$4;
#X text 136 202 attack (ms);
#X text 169 227 hold (ms);
#X text 189 281 release (ms);
#X connect 0 0 1 0;
#X connect 0 0 3 0;
#X connect 1 0 2 0;
#X connect 3 0 6 0;
#X connect 4 0 1 1;
#X connect 5 0 8 0;
#X connect 5 0 10 0;
#X connect 6 0 5 0;
#X connect 8 0 9 0;
#X connect 9 0 4 0;
#X connect 10 0 11 0;
#X connect 11 0 12 0;
#X connect 12 0 4 0;
