#N canvas 296 122 816 513 12;
#X obj 94 332 hip~ 5;
#X obj 94 192 -~ 0.5;
#X obj 94 242 cos~;
#X obj 94 275 *~;
#X obj 95 130 phasor~;
#X obj 94 217 *~ 0.5;
#X obj 159 191 *~ 226;
#X floatatom 95 95 5 0 0 0 - - -;
#X floatatom 194 157 5 0 0 0 - - -;
#X obj 94 303 *~;
#X obj 355 90 inlet;
#X obj 90 -37 loadbang;
#X obj 356 118 t b b b;
#X obj 386 266 pack 1 20;
#X obj 349 304 line~;
#X msg 386 239 1;
#X msg 334 228 0;
#X obj 274 141 r decay;
#X obj 362 146 random 5000;
#X obj 159 266 print~;
#X obj 227 270 bng 15 250 50 0 empty empty empty 17 7 0 10 -262144
-1 -1;
#X obj 222 203 line~;
#X obj 159 216 +~;
#X obj 374 60 bng 15 250 50 0 empty empty empty 17 7 0 10 -262144 -1
-1;
#X obj 336 201 del 200;
#X floatatom 227 26 5 0 0 0 - - -;
#X obj 222 179 pack f 800;
#X obj 227 50 s decay;
#X obj 302 266 pack 0 200;
#X obj 385 174 r decay;
#X obj 159 242 tabread4~ \$1;
#X obj 88 -12 f \$2;
#X obj 170 -7 f \$3;
#X obj 229 0 f \$3;
#X text 302 398 \$1 table name \$2 frequency \$3 window size \$4 decay
, f 14;
#X obj 94 360 outlet~;
#X obj 537 103 r filesize;
#X obj 535 168 -;
#X obj 559 142 r decay;
#X connect 0 0 35 0;
#X connect 1 0 5 0;
#X connect 2 0 3 0;
#X connect 3 0 9 0;
#X connect 4 0 1 0;
#X connect 4 0 6 0;
#X connect 5 0 2 0;
#X connect 6 0 22 0;
#X connect 7 0 4 0;
#X connect 8 0 6 1;
#X connect 9 0 0 0;
#X connect 10 0 12 0;
#X connect 11 0 31 0;
#X connect 11 0 32 0;
#X connect 11 0 33 0;
#X connect 12 0 24 0;
#X connect 12 1 15 0;
#X connect 12 2 18 0;
#X connect 13 0 14 0;
#X connect 14 0 9 1;
#X connect 15 0 13 0;
#X connect 16 0 28 0;
#X connect 17 0 26 1;
#X connect 18 0 26 0;
#X connect 20 0 19 0;
#X connect 21 0 22 1;
#X connect 22 0 30 0;
#X connect 23 0 12 0;
#X connect 24 0 16 0;
#X connect 25 0 27 0;
#X connect 26 0 21 0;
#X connect 28 0 14 0;
#X connect 29 0 24 1;
#X connect 29 0 28 1;
#X connect 30 0 3 1;
#X connect 30 0 19 0;
#X connect 31 0 7 0;
#X connect 32 0 8 0;
#X connect 33 0 25 0;
#X connect 36 0 37 0;
#X connect 37 0 18 1;
#X connect 38 0 37 1;
