#N canvas 207 22 933 690 12;
#X obj 519 329 soundfiler;
#X obj 66 464 pack 0 0;
#X obj 518 353 t f f;
#X obj 34 335 bng 15 250 50 0 empty empty empty 17 7 0 10 -262144 -1
-1;
#X obj 557 158 / 44.1;
#X obj 34 487 line~;
#X obj 34 406 del;
#X obj 34 355 t b b;
#X msg 34 433 0;
#X obj 34 310 spigot;
#X obj 34 232 t b b b;
#X obj 34 257 del;
#X msg 64 257 0;
#X msg 34 282 1;
#X text 612 131 calculate the soundfile length in ms, f 20;
#X obj 519 257 symbol \$1;
#X obj 166 243 loadbang;
#X msg 166 267 1;
#X obj 592 258 symbol \$0-buffer;
#X obj 519 279 pack s s;
#X obj 557 183 s \$0-filelength;
#X obj 136 389 r \$0-filelength;
#X obj 131 188 r \$0-filelength;
#X obj 114 347 r \$0-filelength;
#X obj 64 25 inlet;
#X obj 349 312 r \$2;
#X obj 519 234 t a b;
#X obj 291 450 pack 0 0;
#X obj 259 321 bng 15 250 50 0 empty empty empty 17 7 0 10 -262144
-1 -1;
#X obj 259 473 line~;
#X obj 259 392 del;
#X obj 259 341 t b b;
#X msg 259 419 0;
#X obj 259 296 spigot;
#X obj 259 218 t b b b;
#X obj 259 243 del;
#X msg 289 243 0;
#X msg 259 268 1;
#X obj 65 98 f;
#X obj 124 85 + 1;
#X msg 12 62 0;
#X obj 65 127 sel 0;
#X obj 124 109 % 2;
#X obj 161 593 hip~ 5;
#X obj 158 645 outlet~;
#X msg 519 301 read \$1 \$2;
#X obj 519 30 t b b;
#X obj 66 440 f 160363;
#X obj 291 426 f 160363;
#X obj 557 52 f;
#X obj 655 3 r max_arr_length;
#X obj 130 415 r max_arr_length;
#X obj 467 31 bng 15 250 50 0 empty empty empty 17 7 0 10 -262144 -1
-1;
#X obj 519 6 r loadsamps;
#X msg 756 280 read -resize \$1 \$2 \$3;
#X msg 768 197 line 0 \, bang;
#X obj 756 251 text sequence \$0-loadarrays;
#X obj 34 514 tabread4~ \$0-buffer;
#X obj 259 500 tabread4~ \$0-buffer;
#X obj 664 44 array define \$0-buffer 160363;
#X connect 0 0 2 0;
#X connect 1 0 5 0;
#X connect 3 0 7 0;
#X connect 4 0 20 0;
#X connect 5 0 57 0;
#X connect 6 0 8 0;
#X connect 7 0 6 0;
#X connect 7 1 47 0;
#X connect 8 0 5 0;
#X connect 9 0 3 0;
#X connect 10 0 11 0;
#X connect 10 1 12 0;
#X connect 10 2 9 0;
#X connect 11 0 13 0;
#X connect 12 0 9 1;
#X connect 13 0 9 1;
#X connect 15 0 19 0;
#X connect 16 0 17 0;
#X connect 17 0 9 1;
#X connect 17 0 33 1;
#X connect 18 0 19 1;
#X connect 19 0 45 0;
#X connect 21 0 1 1;
#X connect 21 0 27 1;
#X connect 22 0 11 1;
#X connect 22 0 35 1;
#X connect 23 0 6 1;
#X connect 23 0 30 1;
#X connect 24 0 38 0;
#X connect 25 0 57 0;
#X connect 25 0 58 0;
#X connect 26 0 15 0;
#X connect 26 1 18 0;
#X connect 27 0 29 0;
#X connect 28 0 31 0;
#X connect 29 0 58 0;
#X connect 30 0 32 0;
#X connect 31 0 30 0;
#X connect 31 1 48 0;
#X connect 32 0 29 0;
#X connect 33 0 28 0;
#X connect 34 0 35 0;
#X connect 34 1 36 0;
#X connect 34 2 33 0;
#X connect 35 0 37 0;
#X connect 36 0 33 1;
#X connect 37 0 33 1;
#X connect 38 0 39 0;
#X connect 38 0 41 0;
#X connect 39 0 42 0;
#X connect 40 0 38 1;
#X connect 41 0 10 0;
#X connect 41 1 34 0;
#X connect 42 0 38 1;
#X connect 43 0 44 0;
#X connect 45 0 0 0;
#X connect 46 0 26 0;
#X connect 46 1 49 0;
#X connect 47 0 1 0;
#X connect 48 0 27 0;
#X connect 49 0 4 0;
#X connect 50 0 49 1;
#X connect 51 0 47 1;
#X connect 51 0 48 1;
#X connect 52 0 46 0;
#X connect 53 0 46 0;
#X connect 54 0 0 0;
#X connect 55 0 56 0;
#X connect 56 0 54 0;
#X connect 57 0 43 0;
#X connect 58 0 43 0;
