#N canvas 469 138 450 300 12;
#X obj 76 115 sel 1;
#X obj 98 279 bng 15 250 50 0 empty empty empty 17 7 0 10 -262144 -1
-1;
#X obj 84 241 spigot;
#X obj 81 140 t b b b;
#X msg 146 174 0;
#X msg 74 195 1;
#X floatatom 139 100 5 0 0 0 - - -;
#X floatatom 158 146 5 0 0 0 - - -;
#X obj 82 7 inlet;
#X obj 76 91 > \$1;
#X obj 77 169 del \$2;
#X obj 79 40 route threshold delay;
#X obj 240 152 loadbang;
#X obj 166 265 outlet;
#X obj 327 42 r threshold;
#X obj 295 109 r delay;
#X connect 0 0 3 0;
#X connect 2 0 1 0;
#X connect 2 0 13 0;
#X connect 3 0 10 0;
#X connect 3 1 4 0;
#X connect 3 2 2 0;
#X connect 4 0 2 1;
#X connect 5 0 2 1;
#X connect 6 0 9 1;
#X connect 7 0 10 1;
#X connect 8 0 11 0;
#X connect 9 0 0 0;
#X connect 10 0 5 0;
#X connect 11 0 9 1;
#X connect 11 1 10 1;
#X connect 11 2 9 0;
#X connect 12 0 5 0;
#X connect 14 0 9 1;
#X connect 15 0 10 1;
