#N canvas 0 22 467 381 12;
#X obj 163 16 inlet~;
#X obj 163 100 env~ 64;
#X obj 163 178 pack 0 20;
#X obj 163 202 line~;
#X obj 163 226 *~;
#X obj 163 286 outlet~;
#X obj 163 151 clip 0 1;
#X obj 163 124 / 300;
#X obj 163 44 mygate~ 60 20 100;
#X obj 346 37 inlet;
#X floatatom 409 102 5 0 0 0 - - -;
#X obj 163 73 bp~ 200 10;
#X obj 210 202 osc~ 200;
#X obj 345 64 mtof;
#X obj 331 164 pack 0 20;
#X obj 331 188 line~;
#X obj 331 140 clip 0 0.8;
#X obj 331 96 t f f f;
#X obj 163 256 *~;
#X connect 0 0 8 0;
#X connect 1 0 7 0;
#X connect 2 0 3 0;
#X connect 3 0 4 0;
#X connect 4 0 18 0;
#X connect 6 0 2 0;
#X connect 7 0 6 0;
#X connect 8 0 11 0;
#X connect 9 0 13 0;
#X connect 11 0 1 0;
#X connect 12 0 4 1;
#X connect 13 0 10 0;
#X connect 13 0 17 0;
#X connect 14 0 15 0;
#X connect 15 0 18 1;
#X connect 16 0 14 0;
#X connect 17 0 12 0;
#X connect 17 1 11 1;
#X connect 17 2 16 0;
#X connect 18 0 5 0;
