#N canvas 24 71 1047 572 10;
#X declare -path abstractions;
#X declare -path audio;
#X obj 558 4 declare -path abstractions;
#X obj 558 25 declare -path audio;
#X obj 826 125 dac~;
#X obj 24 336 *~;
#X obj 40 313 tgl 15 0 empty empty empty 17 7 0 10 -262144 -1 -1 0
1;
#X obj 30 368 flanger+envelope;
#X obj 30 538 flanger_modulated;
#X obj 28 498 *~;
#X obj 49 477 tgl 15 0 empty empty empty 17 7 0 10 -262144 -1 -1 0
1;
#X obj 770 204 *~;
#X obj 783 182 tgl 15 0 empty empty empty 17 7 0 10 -262144 -1 -1 0
1;
#X obj 47 109 gs~;
#X obj 33 58 *~;
#X obj 48 35 tgl 15 0 empty empty empty 17 7 0 10 -262144 -1 -1 0 1
;
#X obj 68 80 bng 15 250 50 0 empty empty empty 17 7 0 10 -262144 -1
-1;
#X obj 3 193 m_delay;
#X obj 3 168 *~;
#X obj 20 139 tgl 15 0 empty empty empty 17 7 0 10 -262144 -1 -1 0
1;
#X obj 396 224 *~;
#X obj 417 203 tgl 15 0 empty empty empty 17 7 0 10 -262144 -1 -1 0
1;
#X text 92 78 <- Random parameter change;
#X obj 821 10 adc~ 1;
#X obj 821 32 adc~ 2;
#X obj 821 54 adc~ 3;
#X obj 821 76 adc~ 4;
#X text 80 110 Granular delay;
#X obj 22 445 pitchshift;
#X text 96 206 3x Delay lines \; Delay time eingeben und enter drucken
\; Delay = 0 macht delay aus;
#X obj 24 424 *~;
#X obj 40 401 tgl 15 0 empty empty empty 17 7 0 10 -262144 -1 -1 0
1;
#X floatatom 78 418 5 0 0 0 - - -;
#X text 120 420 <- Semitones;
#X floatatom 127 513 5 0 0 0 - - -;
#N canvas 353 22 614 482 vocoderparams 0;
#X floatatom 104 105 5 0 0 1 Grundton - -;
#X obj 306 340 f;
#X obj 306 364 t f f f f;
#X obj 346 400 + 4;
#X obj 320 400 + 7;
#X obj 288 400 + 12;
#X obj 293 313 bng 15 250 50 0 empty empty empty 17 7 0 10 -262144
-1 -1;
#X obj 222 98 text define notes;
#X msg 222 75 read ./textfiles/notes.txt;
#X obj 100 379 unpack f f f;
#X obj 100 356 text get notes;
#X floatatom 44 331 5 0 0 0 - - -;
#X obj 106 131 bng 15 250 50 0 empty empty Major 17 7 0 10 -262144
-1 -1;
#X obj 106 155 bng 15 250 50 0 empty empty Minor 17 7 0 10 -262144
-1 -1;
#X obj 106 179 bng 15 250 50 0 empty empty Overtones 17 7 0 10 -262144
-1 -1;
#X obj 106 203 bng 15 250 50 0 empty empty Cluster 17 7 0 10 -262144
-1 -1;
#X msg 96 320 0;
#X msg 127 320 1;
#X msg 161 320 2;
#X msg 238 319 3;
#X obj 86 289 t b b;
#X obj 129 286 t b b;
#X obj 172 286 t b b;
#X obj 215 287 t b b;
#X obj 347 274 t b f;
#X obj 222 51 loadbang;
#N canvas 30 95 779 546 vocrev_nocrush 0;
#X obj 51 345 vocoder;
#X obj 93 443 *~;
#X obj 164 421 line~;
#X obj 236 383 del 20;
#X obj 236 404 pack 0 20;
#X obj 164 400 pack 1 20;
#X obj 24 275 bng 15 250 50 0 empty empty empty 17 7 0 10 -262144 -1
-1;
#X obj 24 67 env~ 64;
#X obj 24 146 sel 1;
#X obj 24 94 spigot;
#X obj 79 90 tgl 15 0 empty empty empty 17 7 0 10 -262144 -1 -1 1 1
;
#X obj 24 250 spigot;
#X obj 24 172 t b b b;
#X msg 71 197 0;
#X msg 24 222 1;
#X text 103 71 turn input off;
#X text 60 121 trigger theshold;
#X obj 24 43 inlet~;
#X msg 79 46 1;
#X obj 24 121 > 80;
#X obj 24 197 del 30;
#X obj 79 23 loadbang;
#X obj 89 507 outlet~;
#X floatatom 276 327 5 0 0 0 - - -;
#X obj 93 468 rev3~ 100 80 3000 20;
#X obj 278 267 loadbang;
#X msg 278 288 100;
#X floatatom 179 115 5 0 0 0 - - -;
#X obj 280 122 inlet;
#X connect 0 0 1 0;
#X connect 1 0 24 0;
#X connect 2 0 1 1;
#X connect 3 0 4 0;
#X connect 4 0 2 0;
#X connect 5 0 2 0;
#X connect 6 0 5 0;
#X connect 6 0 3 0;
#X connect 7 0 9 0;
#X connect 8 0 12 0;
#X connect 9 0 19 0;
#X connect 10 0 9 1;
#X connect 11 0 6 0;
#X connect 12 0 20 0;
#X connect 12 1 13 0;
#X connect 12 2 11 0;
#X connect 13 0 11 1;
#X connect 14 0 11 1;
#X connect 17 0 7 0;
#X connect 17 0 0 0;
#X connect 18 0 10 0;
#X connect 18 0 11 1;
#X connect 19 0 8 0;
#X connect 20 0 14 0;
#X connect 21 0 18 0;
#X connect 23 0 5 1;
#X connect 23 0 3 1;
#X connect 23 0 4 1;
#X connect 24 0 22 0;
#X connect 24 1 22 0;
#X connect 25 0 26 0;
#X connect 26 0 23 0;
#X connect 27 0 19 1;
#X connect 28 0 0 1;
#X restore 214 449 pd vocrev_nocrush;
#X obj 214 422 inlet~;
#X obj 214 470 outlet~;
#X connect 0 0 24 0;
#X connect 1 0 2 0;
#X connect 2 0 5 0;
#X connect 2 1 4 0;
#X connect 2 2 3 0;
#X connect 2 3 26 1;
#X connect 3 0 26 1;
#X connect 4 0 26 1;
#X connect 5 0 26 1;
#X connect 6 0 1 0;
#X connect 8 0 7 0;
#X connect 9 0 5 1;
#X connect 9 1 4 1;
#X connect 9 2 3 1;
#X connect 10 0 9 0;
#X connect 11 0 10 0;
#X connect 12 0 20 0;
#X connect 13 0 21 0;
#X connect 14 0 22 0;
#X connect 15 0 23 0;
#X connect 16 0 10 0;
#X connect 17 0 10 0;
#X connect 18 0 10 0;
#X connect 19 0 10 0;
#X connect 20 0 6 0;
#X connect 20 1 16 0;
#X connect 21 0 6 0;
#X connect 21 1 17 0;
#X connect 22 0 6 0;
#X connect 22 1 18 0;
#X connect 23 0 6 0;
#X connect 23 1 19 0;
#X connect 24 0 6 0;
#X connect 24 1 1 1;
#X connect 25 0 8 0;
#X connect 26 0 28 0;
#X connect 27 0 26 0;
#X coords 0 -1 1 1 90 125 2 100 100;
#X restore 389 260 pd vocoderparams;
#X text 495 265 "Vocoder" \; Grundton eingeben \; Stimmenanordnung
auswähelen \;;
#X text 171 515 <- Modulation Frequency (Hz);
#X obj 769 245 rev3~ 100 90 3000 20;
#X floatatom 838 214 5 0 95 0 - - -;
#X floatatom 838 191 5 0 0 0 - - -;
#X text 876 193 cutoff freq;
#X text 876 213 length (100 = freeze!!);
#X text 879 9 Inputs;
#X text 864 126 Output;
#X connect 3 0 5 0;
#X connect 4 0 3 1;
#X connect 7 0 6 0;
#X connect 8 0 7 1;
#X connect 9 0 36 0;
#X connect 10 0 9 1;
#X connect 12 0 11 0;
#X connect 13 0 12 1;
#X connect 14 0 11 1;
#X connect 16 0 15 0;
#X connect 17 0 16 1;
#X connect 18 0 33 0;
#X connect 19 0 18 1;
#X connect 28 0 26 0;
#X connect 29 0 28 1;
#X connect 30 0 26 1;
#X connect 32 0 6 1;
#X connect 37 0 36 3;
#X connect 38 0 36 4;
