#N canvas 257 44 831 669 12;
#X declare -path abstractions;
#X declare -path audio;
#X obj 427 271 sh-sampler mastersample;
#X obj 81 55 env~ 64;
#X obj 81 79 > 80;
#X obj 79 105 sel 1;
#X floatatom 143 72 5 0 0 0 - - -;
#X obj 76 173 voice_allocator, f 23;
#X msg 113 137 0;
#X obj 48 139 bng 15 250 50 0 empty empty empty 17 7 0 10 -262144 -1
-1;
#X obj 81 28 adc~;
#X msg 184 31 1000;
#X msg 186 1 95;
#X obj 144 485 +~;
#X obj 433 582 *~;
#X floatatom 428 495 5 0 0 0 - - -;
#X obj 428 518 pack 0 20;
#X obj 428 542 line~;
#X obj 434 611 dac~;
#X obj 121 264 reading-head mastersample 400;
#X obj 74 212 reading-head mastersample 400;
#X obj 96 238 reading-head mastersample 400;
#X obj 149 291 reading-head mastersample 400;
#X obj 169 316 reading-head mastersample 400;
#X obj 191 342 reading-head mastersample 400;
#X obj 216 368 reading-head mastersample 400;
#X obj 244 395 reading-head mastersample 400;
#X obj 560 427 s decay;
#X floatatom 560 403 5 0 0 0 - - -;
#X obj 427 249 bng 15 250 50 0 empty empty empty 17 7 0 10 -262144
-1 -1;
#X text 446 247 <- Fill the buffer;
#X obj 561 355 loadbang;
#X msg 561 379 200;
#X obj 446 43 bng 40 250 50 0 empty empty Init 50 10 0 20 -257985 -1
-1;
#X obj 428 470 r vol;
#X obj 143 46 r th;
#X obj 427 226 r fill;
#X obj 535 91 del 500;
#X msg 446 108 \; pd dsp 1 \;;
#X text 187 72 Trigger empfindlichkeit;
#X text 604 405 Noten länge;
#X msg 535 118 \; fill bang \; th 80 \; vol 0.5 \;;
#X text 472 494 Lautstärke (max 1!!);
#X obj 587 7 declare -path abstractions;
#X obj 587 37 declare -path audio;
#X obj 35 81 s amp;
#X obj 264 462 r amp;
#X obj 264 510 * 100;
#X obj 133 107 s trig;
#X obj 315 508 r trig;
#X obj 259 553 f;
#X floatatom 259 577 5 0 0 0 - - -;
#X obj 264 486 - 20;
#X floatatom 307 483 5 0 0 0 - - -;
#X obj 144 509 bp~ 1000 5;
#X obj 680 249 bonk~;
#X connect 1 0 2 0;
#X connect 1 0 43 0;
#X connect 2 0 3 0;
#X connect 3 0 7 0;
#X connect 3 0 5 0;
#X connect 3 0 46 0;
#X connect 4 0 2 1;
#X connect 5 0 18 0;
#X connect 5 1 19 0;
#X connect 5 2 17 0;
#X connect 5 3 20 0;
#X connect 5 4 21 0;
#X connect 5 5 22 0;
#X connect 5 6 23 0;
#X connect 5 7 24 0;
#X connect 6 0 5 0;
#X connect 8 0 1 0;
#X connect 9 0 4 0;
#X connect 10 0 4 0;
#X connect 11 0 52 0;
#X connect 12 0 16 0;
#X connect 12 0 16 1;
#X connect 13 0 14 0;
#X connect 14 0 15 0;
#X connect 15 0 12 1;
#X connect 17 0 11 0;
#X connect 18 0 11 0;
#X connect 19 0 11 0;
#X connect 20 0 11 0;
#X connect 21 0 11 0;
#X connect 22 0 11 0;
#X connect 23 0 11 0;
#X connect 24 0 11 0;
#X connect 26 0 25 0;
#X connect 27 0 0 0;
#X connect 29 0 30 0;
#X connect 30 0 26 0;
#X connect 31 0 36 0;
#X connect 31 0 35 0;
#X connect 32 0 13 0;
#X connect 33 0 4 0;
#X connect 34 0 27 0;
#X connect 35 0 39 0;
#X connect 44 0 50 0;
#X connect 45 0 48 1;
#X connect 47 0 48 0;
#X connect 48 0 49 0;
#X connect 49 0 52 1;
#X connect 50 0 45 0;
#X connect 51 0 45 1;
#X connect 52 0 12 0;
