#N canvas 272 22 1280 691 12;
#X declare -path abstractions;
#X declare -path audio;
#X obj 428 308 sh-sampler mastersample;
#X obj 561 464 s decay;
#X floatatom 561 440 5 0 0 0 - - -;
#X obj 428 286 bng 15 250 50 0 empty empty empty 17 7 0 10 -262144
-1 -1;
#X text 447 284 <- Fill the buffer;
#X obj 562 392 loadbang;
#X msg 562 416 200;
#X obj 447 80 bng 40 250 50 0 empty empty Init 50 10 0 20 -257985 -1
-1;
#X obj 428 263 r fill;
#X obj 536 128 del 500;
#X msg 447 145 \; pd dsp 1 \;;
#X text 605 442 Noten l채nge;
#X obj 588 44 declare -path abstractions;
#X obj 588 74 declare -path audio;
#X obj 63 205 adc~;
#X obj 624 307 sh-sampler_sine sinustable;
#X obj 870 138 s tablechange;
#X msg 927 100 set \$1;
#X symbolatom 946 74 10 0 0 0 - - -;
#X obj 791 286 bng 15 250 50 0 empty empty empty 17 7 0 10 -262144
-1 -1;
#X msg 769 90 set mastersample;
#X msg 832 31 set sinustable;
#X obj 599 242 osc~ 440;
#X obj 623 276 +~;
#X obj 681 258 osc~ 325;
#N canvas 0 22 582 439 rand_table 0;
#X obj 80 142 sel 1;
#X obj 77 210 voice_allocator, f 23;
#X msg 114 174 0;
#X obj 49 176 bng 15 250 50 0 empty empty empty 17 7 0 10 -262144 -1
-1;
#X obj 145 522 +~;
#X obj 75 674 *~;
#X floatatom 70 587 5 0 0 0 - - -;
#X obj 70 610 pack 0 20;
#X obj 70 634 line~;
#X obj 70 562 r vol;
#X text 114 586 Lautst채rke (max 1!!);
#X floatatom 240 118 5 0 0 0 - - -;
#X obj 209 137 -;
#X obj 168 108 f 100;
#X obj 184 77 t b f;
#X obj 228 97 clip 0 100;
#X obj 209 161 * 10;
#X floatatom 209 185 5 0 0 0 - - -;
#X obj 145 546 lop~ 1000 5;
#X obj 412 572 pack 5000 f;
#X obj 412 596 line;
#X floatatom 64 75 5 0 0 0 - - -;
#X floatatom 406 629 5 0 0 0 - - -;
#X msg 499 572 0;
#X obj 422 537 t b f b;
#X obj 76 703 outlet~;
#X obj 125 18 inlet;
#X obj 82 116 > 40;
#X obj 75 249 reading-head mastersample 400 40;
#X obj 97 275 reading-head mastersample 400 42;
#X obj 122 301 reading-head mastersample 400 41;
#X obj 150 328 reading-head mastersample 400 38;
#X obj 170 353 reading-head mastersample 400 39;
#X obj 192 379 reading-head mastersample 400 45;
#X obj 217 405 reading-head mastersample 400 37;
#X obj 245 432 reading-head mastersample 400 39;
#X obj 198 31 s \$0-trig;
#X obj 290 457 r \$0-trig;
#X obj 289 526 + 500;
#X obj 289 502 random 6500;
#X obj 289 479 t b;
#X connect 0 0 3 0;
#X connect 0 0 1 0;
#X connect 1 0 28 0;
#X connect 1 1 29 0;
#X connect 1 2 30 0;
#X connect 1 3 31 0;
#X connect 1 4 32 0;
#X connect 1 5 33 0;
#X connect 1 6 34 0;
#X connect 1 7 35 0;
#X connect 2 0 1 0;
#X connect 4 0 18 0;
#X connect 5 0 25 0;
#X connect 6 0 7 0;
#X connect 7 0 8 0;
#X connect 8 0 5 1;
#X connect 9 0 6 0;
#X connect 11 0 12 1;
#X connect 12 0 16 0;
#X connect 13 0 12 0;
#X connect 14 0 13 0;
#X connect 14 1 15 0;
#X connect 15 0 11 0;
#X connect 16 0 17 0;
#X connect 17 0 24 0;
#X connect 18 0 5 0;
#X connect 19 0 20 0;
#X connect 20 0 18 1;
#X connect 20 0 22 0;
#X connect 21 0 27 1;
#X connect 23 0 20 0;
#X connect 24 1 19 1;
#X connect 24 2 23 0;
#X connect 26 0 14 0;
#X connect 26 0 27 0;
#X connect 26 0 36 0;
#X connect 27 0 0 0;
#X connect 28 0 4 0;
#X connect 29 0 4 0;
#X connect 30 0 4 0;
#X connect 31 0 4 0;
#X connect 32 0 4 0;
#X connect 33 0 4 0;
#X connect 34 0 4 0;
#X connect 35 0 4 0;
#X connect 37 0 40 0;
#X connect 38 0 19 0;
#X connect 39 0 38 0;
#X connect 40 0 39 0;
#X restore 17 418 pd rand_table;
#N canvas 0 22 574 652 sine_table 0;
#X obj 80 142 sel 1;
#X obj 77 210 voice_allocator, f 23;
#X msg 114 174 0;
#X obj 49 176 bng 15 250 50 0 empty empty empty 17 7 0 10 -262144 -1
-1;
#X obj 145 522 +~;
#X obj 145 566 *~;
#X floatatom 316 569 5 0 0 0 - - -;
#X obj 316 592 pack 0 20;
#X obj 316 616 line~;
#X obj 316 544 r vol;
#X text 360 568 Lautst채rke (max 1!!);
#X floatatom 64 75 5 0 0 0 - - -;
#X obj 146 595 outlet~;
#X obj 125 18 inlet;
#X obj 82 116 > 40;
#X obj 75 249 reading-head sinustable 400 40;
#X obj 97 275 reading-head sinustable 400 42;
#X obj 122 301 reading-head sinustable 400 55;
#X obj 151 328 reading-head sinustable 400 80;
#X obj 170 352 reading-head sinustable 400 77;
#X obj 193 378 reading-head sinustable 400 99;
#X obj 218 405 reading-head sinustable 400 71;
#X obj 245 432 reading-head sinustable 400 80;
#X connect 0 0 3 0;
#X connect 0 0 1 0;
#X connect 1 0 15 0;
#X connect 1 1 16 0;
#X connect 1 2 17 0;
#X connect 1 3 18 0;
#X connect 1 4 19 0;
#X connect 1 5 20 0;
#X connect 1 6 21 0;
#X connect 1 7 22 0;
#X connect 2 0 1 0;
#X connect 4 0 5 0;
#X connect 5 0 12 0;
#X connect 6 0 7 0;
#X connect 7 0 8 0;
#X connect 8 0 5 1;
#X connect 9 0 6 0;
#X connect 11 0 14 1;
#X connect 13 0 14 0;
#X connect 14 0 0 0;
#X connect 15 0 4 0;
#X connect 16 0 4 0;
#X connect 17 0 4 0;
#X connect 18 0 4 0;
#X connect 19 0 4 0;
#X connect 20 0 4 0;
#X connect 21 0 4 0;
#X connect 22 0 4 0;
#X restore 66 600 pd sine_table;
#X floatatom 42 336 5 0 0 0 - - -;
#X floatatom 93 337 5 0 0 0 - - -;
#X msg 193 187 learn 10;
#X msg 192 217 learn 0;
#X obj 68 505 dac~;
#X msg 117 224 print;
#X msg 192 246 forget;
#X floatatom 284 322 5 0 0 0 - - -;
#X obj 63 228 bonk~;
#X obj -2 378 bng 15 250 50 0 empty empty empty 17 7 0 10 -262144 -1
-1;
#X obj 430 337 sh-sampler holdasample;
#N canvas 0 22 574 652 sample_table 0;
#X obj 80 142 sel 1;
#X obj 77 210 voice_allocator, f 23;
#X msg 114 174 0;
#X obj 49 176 bng 15 250 50 0 empty empty empty 17 7 0 10 -262144 -1
-1;
#X obj 145 522 +~;
#X obj 145 566 *~;
#X floatatom 316 569 5 0 0 0 - - -;
#X obj 316 592 pack 0 20;
#X obj 316 616 line~;
#X obj 316 544 r vol;
#X text 360 568 Lautst채rke (max 1!!);
#X floatatom 64 75 5 0 0 0 - - -;
#X obj 146 595 outlet~;
#X obj 125 18 inlet;
#X obj 82 116 > 40;
#X obj 75 249 reading-moving-head holdasample 40 200 300;
#X obj 97 275 reading-moving-head holdasample 42 250 120;
#X obj 122 301 reading-moving-head holdasample 38 120 250;
#X obj 150 328 reading-moving-head holdasample 45 255 300;
#X obj 170 353 reading-moving-head holdasample 48 200 300;
#X obj 192 379 reading-moving-head holdasample 31 280 280;
#X obj 217 405 reading-moving-head holdasample 44 500 300;
#X obj 245 432 reading-moving-head holdasample 47 255 270;
#X connect 0 0 3 0;
#X connect 0 0 1 0;
#X connect 1 0 15 0;
#X connect 1 1 16 0;
#X connect 1 2 17 0;
#X connect 1 3 18 0;
#X connect 1 4 19 0;
#X connect 1 5 20 0;
#X connect 1 6 21 0;
#X connect 1 7 22 0;
#X connect 2 0 1 0;
#X connect 4 0 5 0;
#X connect 5 0 12 0;
#X connect 6 0 7 0;
#X connect 7 0 8 0;
#X connect 8 0 5 1;
#X connect 9 0 6 0;
#X connect 11 0 14 1;
#X connect 13 0 14 0;
#X connect 14 0 0 0;
#X connect 15 0 4 0;
#X connect 16 0 4 0;
#X connect 17 0 4 0;
#X connect 18 0 4 0;
#X connect 19 0 4 0;
#X connect 20 0 4 0;
#X connect 21 0 4 0;
#X connect 22 0 4 0;
#X restore 250 419 pd sample_table;
#X obj 352 355 bng 15 250 50 0 empty empty empty 17 7 0 10 -262144
-1 -1;
#X msg 536 155 \; fill bang \; vol 0.5 \;;
#X msg 313 357 80;
#X msg 69 571 80;
#X msg 48 376 80;
#X obj 126 416 clone fm-voice 8;
#X msg 126 390 next bang;
#X obj 127 365 > 40;
#X msg 137 337 80;
#X obj 49 274 route 0 1 2;
#X symbolatom 15 21 10 0 0 0 - - -;
#X msg 15 73 write ./textfiles/\$1;
#X obj 15 47 makefilename rec_instruments_%s.txt;
#X text 92 21 <- write data to file;
#X symbolatom 16 99 10 0 0 0 - - -;
#X obj 16 125 makefilename rec_instruments_%s.txt;
#X msg 16 151 read ./textfiles/\$1;
#X text 93 99 <- load data from file;
#X text 265 187 <- start learning;
#X text 254 217 <- stop learning;
#X text 247 247 <- erase actual data;
#X text 166 364 <- Threshold;
#X text 368 419 <- Threshold inside!;
#X connect 2 0 1 0;
#X connect 3 0 0 0;
#X connect 5 0 6 0;
#X connect 6 0 2 0;
#X connect 7 0 10 0;
#X connect 7 0 9 0;
#X connect 8 0 3 0;
#X connect 9 0 40 0;
#X connect 14 0 35 0;
#X connect 17 0 16 0;
#X connect 18 0 17 0;
#X connect 19 0 15 1;
#X connect 20 0 16 0;
#X connect 21 0 16 0;
#X connect 22 0 23 0;
#X connect 23 0 15 0;
#X connect 24 0 23 1;
#X connect 25 0 31 0;
#X connect 25 0 31 1;
#X connect 28 0 46 0;
#X connect 29 0 35 0;
#X connect 30 0 35 0;
#X connect 32 0 35 0;
#X connect 33 0 35 0;
#X connect 34 0 38 0;
#X connect 35 1 48 0;
#X connect 36 0 25 0;
#X connect 38 0 31 0;
#X connect 38 0 31 1;
#X connect 39 0 38 0;
#X connect 41 0 38 0;
#X connect 42 0 26 0;
#X connect 43 0 25 0;
#X connect 44 0 31 0;
#X connect 44 0 31 1;
#X connect 45 0 44 0;
#X connect 46 0 45 0;
#X connect 47 0 46 0;
#X connect 48 0 27 0;
#X connect 48 0 34 0;
#X connect 48 1 28 0;
#X connect 49 0 51 0;
#X connect 50 0 35 0;
#X connect 51 0 50 0;
#X connect 53 0 54 0;
#X connect 55 0 35 0;
