#N canvas 251 122 850 485 12;
#X declare -path abstractions;
#X declare -path audio;
#X obj 161 69 bng 15 250 50 0 empty empty empty 17 7 0 10 -262144 -1
-1;
#N canvas 0 22 481 495 soundsets 0;
#X obj 101 101 cnv 15 198 58 empty empty Sound-Sets 60 12 1 14 -232576
-66577 0;
#X obj 103 137 bng 15 250 50 0 empty empty 1 3 -7 1 14 -262144 -1 -1
;
#X obj 123 137 bng 15 250 50 0 empty empty 2 3 -7 1 14 -262144 -1 -1
;
#N canvas 322 253 585 300 four 0;
#X obj 75 61 inlet;
#X obj 85 150 qlist;
#X obj 50 117 bng 15 250 50 0 empty empty empty 17 7 0 10 -262144 -1
-1;
#X msg 85 122 read ./audio/2_intro_mono/filenames.txt;
#X obj 85 97 loadbang;
#X connect 0 0 2 0;
#X connect 2 0 1 0;
#X connect 3 0 1 0;
#X connect 4 0 3 0;
#X restore 163 166 pd four;
#N canvas 0 22 450 300 one 0;
#X obj 95 93 inlet;
#X msg 95 124 \; one snare.wav \; two snare.wav \; three snare.wav
\; four snare.wav \; five snare.wav \; six snare.wav \; seven snare.wav
\; eight snare.wav \; nine snare.wav \; ten snare.wav \; eleven snare.wav
\; twelve snare.wav \; thirteen snare.wav \; fourteen snare.wav \;
fifteen snare.wav \; sixteen snare.wav \; seventeen snare.wav \; eighteen
snare.wav \; nineteen snare.wav \; twenty snare.wav \;;
#X connect 0 0 1 0;
#X restore 103 167 pd one;
#N canvas 322 253 585 300 three 0;
#X obj 37 66 inlet;
#X msg 73 107 read ./audio/1_intro_mono/filenames.txt;
#X obj 73 135 qlist;
#X obj 38 102 bng 15 250 50 0 empty empty empty 17 7 0 10 -262144 -1
-1;
#X obj 80 81 loadbang;
#X connect 0 0 3 0;
#X connect 1 0 2 0;
#X connect 3 0 2 0;
#X connect 4 0 1 0;
#X restore 143 220 pd three;
#N canvas 322 253 585 300 five 0;
#X obj 75 61 inlet;
#X obj 85 150 qlist;
#X obj 50 117 bng 15 250 50 0 empty empty empty 17 7 0 10 -262144 -1
-1;
#X obj 85 97 loadbang;
#X msg 85 122 read ./audio/3_intro_mono/filenames.txt;
#X connect 0 0 2 0;
#X connect 2 0 1 0;
#X connect 3 0 4 0;
#X connect 4 0 1 0;
#X restore 183 192 pd five;
#N canvas 322 253 585 300 two 0;
#X obj 37 66 inlet;
#X obj 73 135 qlist;
#X obj 38 102 bng 15 250 50 0 empty empty empty 17 7 0 10 -262144 -1
-1;
#X obj 80 81 loadbang;
#X msg 73 107 read ./audio/numbers/filenames.txt;
#X connect 0 0 2 0;
#X connect 2 0 1 0;
#X connect 3 0 4 0;
#X connect 4 0 1 0;
#X restore 123 193 pd two;
#X obj 143 137 bng 15 250 50 0 empty empty 3 3 -7 1 14 -262144 -1 -1
;
#X obj 163 137 bng 15 250 50 0 empty empty 4 3 -7 1 14 -262144 -1 -1
;
#X obj 183 137 bng 15 250 50 0 empty empty 5 3 -7 1 14 -262144 -1 -1
;
#X obj 203 137 bng 15 250 50 0 empty empty 6 3 -7 1 14 -262144 -1 -1
;
#X obj 223 137 bng 15 250 50 0 empty empty 7 3 -7 1 14 -262144 -1 -1
;
#X obj 243 137 bng 15 250 50 0 empty empty 8 3 -7 1 14 -262144 -1 -1
;
#X obj 263 137 bng 15 250 50 0 empty empty 9 3 -7 1 14 -262144 -1 -1
;
#X obj 283 137 bng 15 250 50 0 empty empty 10 -1 -7 1 14 -262144 -1
-1;
#X connect 2 0 7 0;
#X connect 8 0 5 0;
#X connect 9 0 3 0;
#X connect 10 0 6 0;
#X coords 0 -1 1 1 200 60 2 100 100;
#X restore 450 20 pd soundsets;
#X obj 192 71 bng 15 250 50 0 empty empty empty 17 7 0 10 -262144 -1
-1;
#N canvas 103 22 1177 690 sensors 0;
#X msg 320 38 open 4;
#X msg 242 33 devices;
#X msg 338 72 close;
#X obj 296 117 comport 4 9600;
#X obj 307 181 t b f;
#X obj 398 232 pack 0 0;
#X obj 210 205 f;
#X obj 210 229 + 1;
#X msg 249 175 0;
#X obj 210 253 % 10;
#X obj 393 396 bng 15 250 50 0 empty empty empty 17 7 0 10 -262144
-1 -1;
#X obj 354 367 bng 15 250 50 0 empty empty empty 17 7 0 10 -262144
-1 -1;
#X obj 448 423 bng 15 250 50 0 empty empty empty 17 7 0 10 -262144
-1 -1;
#X obj 487 448 bng 15 250 50 0 empty empty empty 17 7 0 10 -262144
-1 -1;
#X obj 570 389 bng 15 250 50 0 empty empty empty 17 7 0 10 -262144
-1 -1;
#X obj 609 414 bng 15 250 50 0 empty empty empty 17 7 0 10 -262144
-1 -1;
#X obj 636 440 bng 15 250 50 0 empty empty empty 17 7 0 10 -262144
-1 -1;
#X obj 735 382 bng 15 250 50 0 empty empty empty 17 7 0 10 -262144
-1 -1;
#X obj 774 407 bng 15 250 50 0 empty empty empty 17 7 0 10 -262144
-1 -1;
#X obj 801 433 bng 15 250 50 0 empty empty empty 17 7 0 10 -262144
-1 -1;
#X obj 316 547 outlet;
#X obj 370 547 outlet;
#X obj 427 547 outlet;
#X obj 481 547 outlet;
#X obj 535 548 outlet;
#X obj 589 548 outlet;
#X obj 646 548 outlet;
#X obj 700 548 outlet;
#X obj 753 549 outlet;
#X obj 257 543 outlet;
#X obj 387 362 s_thresh 150 100;
#X obj 442 389 s_thresh 150 100;
#X obj 481 414 s_thresh 150 100;
#X obj 564 355 s_thresh 150 100;
#X obj 603 380 s_thresh 150 100;
#X obj 630 406 s_thresh 150 100;
#X obj 729 348 s_thresh 150 100;
#X obj 768 373 s_thresh 150 100;
#X obj 795 399 s_thresh 150 100;
#X obj 348 333 s_thresh 150 100;
#X obj 899 95 s threshold;
#X obj 900 154 s delay;
#X floatatom 900 62 5 0 0 0 - - -;
#X floatatom 899 123 5 0 0 0 - - -;
#X text 962 62 All;
#X text 957 123 All;
#X obj 295 144 moses 251;
#X obj 397 264 route 1 2 3 4 5 6 7 8 9 0, f 56;
#X connect 0 0 3 0;
#X connect 1 0 3 0;
#X connect 2 0 3 0;
#X connect 3 0 46 0;
#X connect 4 0 6 0;
#X connect 4 1 5 1;
#X connect 5 0 47 0;
#X connect 6 0 7 0;
#X connect 7 0 9 0;
#X connect 8 0 6 1;
#X connect 9 0 6 1;
#X connect 9 0 5 0;
#X connect 10 0 20 0;
#X connect 12 0 21 0;
#X connect 30 0 10 0;
#X connect 31 0 12 0;
#X connect 32 0 13 0;
#X connect 32 0 22 0;
#X connect 33 0 14 0;
#X connect 33 0 23 0;
#X connect 34 0 15 0;
#X connect 34 0 24 0;
#X connect 35 0 16 0;
#X connect 35 0 25 0;
#X connect 36 0 17 0;
#X connect 36 0 26 0;
#X connect 37 0 18 0;
#X connect 37 0 27 0;
#X connect 38 0 19 0;
#X connect 38 0 28 0;
#X connect 39 0 11 0;
#X connect 39 0 29 0;
#X connect 42 0 40 0;
#X connect 43 0 41 0;
#X connect 46 0 4 0;
#X connect 46 1 8 0;
#X connect 47 0 39 0;
#X connect 47 1 30 0;
#X connect 47 2 31 0;
#X connect 47 3 32 0;
#X connect 47 4 33 0;
#X connect 47 5 34 0;
#X connect 47 6 35 0;
#X connect 47 7 36 0;
#X connect 47 8 37 0;
#X connect 47 9 38 0;
#X restore 121 24 pd sensors;
#X f 43;
#X obj 225 70 bng 15 250 50 0 empty empty empty 17 7 0 10 -262144 -1
-1;
#X obj 256 72 bng 15 250 50 0 empty empty empty 17 7 0 10 -262144 -1
-1;
#X obj 294 73 bng 15 250 50 0 empty empty empty 17 7 0 10 -262144 -1
-1;
#X obj 325 75 bng 15 250 50 0 empty empty empty 17 7 0 10 -262144 -1
-1;
#X obj 358 74 bng 15 250 50 0 empty empty empty 17 7 0 10 -262144 -1
-1;
#X obj 389 76 bng 15 250 50 0 empty empty empty 17 7 0 10 -262144 -1
-1;
#X obj 425 72 bng 15 250 50 0 empty empty empty 17 7 0 10 -262144 -1
-1;
#X obj 127 69 bng 15 250 50 0 empty empty empty 17 7 0 10 -262144 -1
-1;
#X obj 327 365 +~;
#X obj 325 427 dac~;
#X obj 737 29 declare -path abstractions;
#X obj 736 55 declare -path audio;
#X obj 125 93 rh-pianodance kick.wav sampler1;
#X obj 170 118 rh-pianodance snare.wav sampler2;
#X obj 205 146 rh-pianodance kick.wav sampler3;
#X obj 244 174 rh-pianodance snare.wav sampler4;
#X obj 279 202 rh-pianodance kick.wav sampler5;
#X obj 321 233 rh-pianodance snare.wav sampler6;
#X obj 356 261 rh-pianodance kick.wav sampler7;
#X obj 391 289 rh-pianodance snare.wav sampler8;
#X obj 426 317 rh-pianodance kick.wav sampler9;
#X obj 469 346 rh-pianodance snare.wav sampler10;
#X obj 327 389 hip~ 10;
#X text 534 117 Preset 1: Empty \; Preset 2: Numbers (for testing)
\; Preset 3: Intro_1 \; Preset 4: Intro_2 \; Preset 5: Intro_3, f
33;
#X connect 0 0 17 0;
#X connect 2 0 18 0;
#X connect 3 0 11 0;
#X connect 3 1 0 0;
#X connect 3 2 2 0;
#X connect 3 3 4 0;
#X connect 3 4 5 0;
#X connect 3 5 6 0;
#X connect 3 6 7 0;
#X connect 3 7 8 0;
#X connect 3 8 9 0;
#X connect 3 9 10 0;
#X connect 4 0 19 0;
#X connect 5 0 20 0;
#X connect 6 0 21 0;
#X connect 7 0 22 0;
#X connect 8 0 23 0;
#X connect 9 0 24 0;
#X connect 10 0 25 0;
#X connect 11 0 16 0;
#X connect 12 0 26 0;
#X connect 16 0 12 1;
#X connect 17 0 12 1;
#X connect 18 0 12 0;
#X connect 19 0 12 1;
#X connect 20 0 12 0;
#X connect 21 0 12 0;
#X connect 22 0 12 0;
#X connect 23 0 12 0;
#X connect 24 0 12 1;
#X connect 25 0 12 1;
#X connect 26 0 13 0;
#X connect 26 0 13 1;
