#N canvas 134 113 923 516 12;
#X declare -path abstractions;
#X obj 123 57 bng 15 250 50 0 empty empty empty 17 7 0 10 -262144 -1
-1;
#X obj 154 59 bng 15 250 50 0 empty empty empty 17 7 0 10 -262144 -1
-1;
#N canvas 162 23 824 690 sensors 0;
#X msg 336 33 open 4;
#X msg 258 28 devices;
#X msg 354 67 close;
#X obj 312 112 comport 4 9600;
#X obj 314 173 t b f;
#X obj 398 232 pack 0 0;
#X obj 228 180 f;
#X obj 228 204 + 1;
#X msg 248 155 0;
#X obj 228 228 % 10;
#X obj 393 396 bng 15 250 50 0 empty empty empty 17 7 0 10 -262144
-1 -1;
#X obj 331 372 bng 15 250 50 0 empty empty empty 17 7 0 10 -262144
-1 -1;
#X obj 448 423 bng 15 250 50 0 empty empty empty 17 7 0 10 -262144
-1 -1;
#X obj 487 448 bng 15 250 50 0 empty empty empty 17 7 0 10 -262144
-1 -1;
#X obj 570 389 bng 15 250 50 0 empty empty empty 17 7 0 10 -262144
-1 -1;
#X obj 609 414 bng 15 250 50 0 empty empty empty 17 7 0 10 -262144
-1 -1;
#X obj 636 440 bng 15 250 50 0 empty empty empty 17 7 0 10 -262144
-1 -1;
#X obj 735 382 bng 15 250 50 0 empty empty empty 17 7 0 10 -262144
-1 -1;
#X obj 774 407 bng 15 250 50 0 empty empty empty 17 7 0 10 -262144
-1 -1;
#X obj 801 433 bng 15 250 50 0 empty empty empty 17 7 0 10 -262144
-1 -1;
#X obj 851 347 bng 15 250 50 0 empty empty empty 17 7 0 10 -262144
-1 -1;
#X obj 316 547 outlet;
#X obj 370 547 outlet;
#X obj 427 547 outlet;
#X obj 481 547 outlet;
#X obj 535 548 outlet;
#X obj 589 548 outlet;
#X obj 646 548 outlet;
#X obj 700 548 outlet;
#X obj 753 549 outlet;
#X obj 261 544 outlet;
#X obj 387 362 s_thresh 150 100;
#X obj 442 389 s_thresh 150 100;
#X obj 481 414 s_thresh 150 100;
#X obj 564 355 s_thresh 150 100;
#X obj 603 380 s_thresh 150 100;
#X obj 630 406 s_thresh 150 100;
#X obj 729 348 s_thresh 150 100;
#X obj 768 373 s_thresh 150 100;
#X obj 795 399 s_thresh 150 100;
#X obj 325 338 s_thresh 150 100;
#X obj 899 95 s threshold;
#X obj 900 154 s delay;
#X floatatom 900 62 5 0 0 0 - - -;
#X floatatom 899 123 5 0 0 0 - - -;
#X text 962 62 All;
#X text 957 123 All;
#X obj 397 264 route 1 2 3 4 5 6 7 8 9 0, f 56;
#X obj 312 138 moses 251;
#X obj 397 167 sel 255;
#X connect 0 0 3 0;
#X connect 1 0 3 0;
#X connect 2 0 3 0;
#X connect 3 0 48 0;
#X connect 4 0 6 0;
#X connect 4 1 5 1;
#X connect 5 0 47 0;
#X connect 6 0 7 0;
#X connect 7 0 9 0;
#X connect 8 0 6 1;
#X connect 9 0 6 1;
#X connect 9 0 5 0;
#X connect 10 0 21 0;
#X connect 12 0 22 0;
#X connect 31 0 10 0;
#X connect 32 0 12 0;
#X connect 33 0 13 0;
#X connect 33 0 23 0;
#X connect 34 0 14 0;
#X connect 34 0 24 0;
#X connect 35 0 15 0;
#X connect 35 0 25 0;
#X connect 36 0 16 0;
#X connect 36 0 26 0;
#X connect 37 0 17 0;
#X connect 37 0 27 0;
#X connect 38 0 18 0;
#X connect 38 0 28 0;
#X connect 39 0 19 0;
#X connect 39 0 29 0;
#X connect 40 0 11 0;
#X connect 40 0 30 0;
#X connect 43 0 41 0;
#X connect 44 0 42 0;
#X connect 47 0 40 0;
#X connect 47 1 31 0;
#X connect 47 2 32 0;
#X connect 47 3 33 0;
#X connect 47 4 34 0;
#X connect 47 5 35 0;
#X connect 47 6 36 0;
#X connect 47 7 37 0;
#X connect 47 8 38 0;
#X connect 47 9 39 0;
#X connect 48 0 4 0;
#X connect 48 1 49 0;
#X connect 49 0 8 0;
#X restore 119 19 pd sensors;
#X f 43;
#X obj 187 58 bng 15 250 50 0 empty empty empty 17 7 0 10 -262144 -1
-1;
#X obj 218 60 bng 15 250 50 0 empty empty empty 17 7 0 10 -262144 -1
-1;
#X obj 256 61 bng 15 250 50 0 empty empty empty 17 7 0 10 -262144 -1
-1;
#X obj 287 63 bng 15 250 50 0 empty empty empty 17 7 0 10 -262144 -1
-1;
#X obj 320 62 bng 15 250 50 0 empty empty empty 17 7 0 10 -262144 -1
-1;
#X obj 351 64 bng 15 250 50 0 empty empty empty 17 7 0 10 -262144 -1
-1;
#X obj 387 60 bng 15 250 50 0 empty empty empty 17 7 0 10 -262144 -1
-1;
#X obj 95 56 bng 15 250 50 0 empty empty empty 17 7 0 10 -262144 -1
-1;
#X obj 267 297 noteout;
#X msg 124 136 61;
#X msg 159 135 62;
#X msg 197 136 63;
#X msg 233 134 64;
#X msg 269 137 65;
#X msg 306 139 66;
#X msg 342 142 67;
#X msg 379 141 68;
#X msg 413 142 69;
#X floatatom 529 145 5 0 0 0 - - -;
#X obj 690 16 declare -path abstractions;
#X msg 89 136 60;
#N canvas 399 130 621 385 setnotes 0;
#X obj 203 110 until;
#X obj 203 134 f;
#X obj 203 158 + 1;
#X obj 203 182 % 10;
#X obj 203 34 inlet;
#X msg 203 86 10;
#X obj 248 225 +;
#X obj 203 206 t f f;
#X obj 204 267 pack 0 s 0;
#X symbolatom 297 231 10 0 0 0 - - -;
#X obj 205 321 outlet;
#X obj 236 345 outlet;
#X obj 264 321 outlet;
#X obj 295 345 outlet;
#X obj 319 321 outlet;
#X obj 350 345 outlet;
#X obj 378 321 outlet;
#X obj 409 345 outlet;
#X obj 435 319 outlet;
#X obj 466 343 outlet;
#X obj 203 61 t b f b;
#X msg 251 107 0;
#X obj 203 292 route 0 1 2 3 4 5 6 7 8 9, f 46;
#X connect 0 0 1 0;
#X connect 1 0 2 0;
#X connect 2 0 3 0;
#X connect 3 0 1 1;
#X connect 3 0 7 0;
#X connect 4 0 20 0;
#X connect 5 0 0 0;
#X connect 6 0 8 2;
#X connect 7 0 8 0;
#X connect 7 1 6 0;
#X connect 8 0 22 0;
#X connect 9 0 8 1;
#X connect 20 0 5 0;
#X connect 20 1 6 1;
#X connect 20 2 21 0;
#X connect 21 0 1 1;
#X connect 22 0 10 0;
#X connect 22 1 11 0;
#X connect 22 2 12 0;
#X connect 22 3 13 0;
#X connect 22 4 14 0;
#X connect 22 5 15 0;
#X connect 22 6 16 0;
#X connect 22 7 17 0;
#X connect 22 8 18 0;
#X connect 22 9 19 0;
#X restore 451 44 pd setnotes;
#X f 31;
#X floatatom 451 12 5 0 0 0 - - -;
#X text 494 13 Set starting midi note;
#X text 574 144 Set note duration;
#X msg 529 168 all \$1;
#X obj 202 233 clone makenote_a 10 127 500;
#X msg 229 188 next \$1;
#X floatatom 140 194 5 0 0 0 - - -;
#X obj 201 264 unpack f f;
#X obj 372 269 unpack f f;
#X connect 0 0 12 0;
#X connect 2 0 10 0;
#X connect 2 0 23 0;
#X connect 2 1 0 0;
#X connect 2 2 1 0;
#X connect 2 2 13 0;
#X connect 2 3 3 0;
#X connect 2 3 14 0;
#X connect 2 4 4 0;
#X connect 2 4 15 0;
#X connect 2 5 5 0;
#X connect 2 5 16 0;
#X connect 2 6 6 0;
#X connect 2 6 17 0;
#X connect 2 7 7 0;
#X connect 2 7 18 0;
#X connect 2 8 8 0;
#X connect 2 8 19 0;
#X connect 2 9 9 0;
#X connect 2 9 20 0;
#X connect 12 0 30 0;
#X connect 13 0 30 0;
#X connect 14 0 30 0;
#X connect 15 0 30 0;
#X connect 16 0 30 0;
#X connect 17 0 30 0;
#X connect 18 0 30 0;
#X connect 19 0 30 0;
#X connect 20 0 30 0;
#X connect 21 0 28 0;
#X connect 23 0 30 0;
#X connect 24 0 23 0;
#X connect 24 1 12 0;
#X connect 24 2 13 0;
#X connect 24 3 14 0;
#X connect 24 4 15 0;
#X connect 24 5 16 0;
#X connect 24 6 17 0;
#X connect 24 7 18 0;
#X connect 24 8 19 0;
#X connect 24 9 20 0;
#X connect 25 0 24 0;
#X connect 28 0 29 1;
#X connect 29 0 32 0;
#X connect 29 1 33 0;
#X connect 30 0 29 0;
#X connect 31 0 30 0;
#X connect 32 1 11 0;
#X connect 33 0 11 1;
