#N canvas 236 228 850 485 12;
#X declare -path ./../audio;
#X obj 24 382 declare -path ./../audio;
#X obj 123 57 bng 15 250 50 0 empty empty empty 17 7 0 10 -262144 -1
-1;
#X msg 240 427 \; one snare.wav \; two snare.wav \;;
#N canvas 0 22 481 495 soundsets 0;
#X obj 101 101 cnv 15 198 58 empty empty Sound-Sets 60 12 1 14 -232576
-66577 0;
#X obj 103 137 bng 15 250 50 0 empty empty empty 17 7 0 10 -262144
-1 -1;
#X obj 123 137 bng 15 250 50 0 empty empty empty 17 7 0 10 -262144
-1 -1;
#X obj 143 137 bng 15 250 50 0 empty empty empty 17 7 0 10 -262144
-1 -1;
#X obj 163 137 bng 15 250 50 0 empty empty empty 17 7 0 10 -262144
-1 -1;
#X obj 183 137 bng 15 250 50 0 empty empty empty 17 7 0 10 -262144
-1 -1;
#X obj 203 137 bng 15 250 50 0 empty empty empty 17 7 0 10 -262144
-1 -1;
#X obj 223 137 bng 15 250 50 0 empty empty empty 17 7 0 10 -262144
-1 -1;
#X obj 243 137 bng 15 250 50 0 empty empty empty 17 7 0 10 -262144
-1 -1;
#X obj 263 137 bng 15 250 50 0 empty empty empty 17 7 0 10 -262144
-1 -1;
#X obj 283 137 bng 15 250 50 0 empty empty empty 17 7 0 10 -262144
-1 -1;
#N canvas 0 22 450 300 first 0;
#X obj 147 105 inlet;
#X msg 95 124 \; one snare.wav \; two snare.wav \; three snare.wav
\; four snare.wav \; five snare.wav \; six snare.wav \; seven snare.wav
\; eight snare.wav \; nine snare.wav \; ten snare.wav \; eleven snare.wav
\; twelve snare.wav \; thirteen snare.wav \; fourteen snare.wav \;
fifteen snare.wav \; sixteen snare.wav \; seventeen snare.wav \; eighteen
snare.wav \; nineteen snare.wav \; twenty snare.wav \;;
#X connect 0 0 1 0;
#X restore 59 211 pd first;
#N canvas 0 22 450 300 second 0;
#X obj 159 63 inlet;
#X msg 160 93 \; one 5.wav \; two 10.wav \; three 15.wav \; four 20.wav
\; five 25.wav \; six 30.wav \; seven 35.wav \; eight 40.wav \; nine
45.wav \; ten 50.wav \;;
#X connect 0 0 1 0;
#X restore 130 249 pd second;
#X connect 1 0 11 0;
#X connect 2 0 12 0;
#X coords 0 -1 1 1 200 60 2 100 100;
#X restore 600 16 pd soundsets;
#X obj 154 59 bng 15 250 50 0 empty empty empty 17 7 0 10 -262144 -1
-1;
#N canvas 6 22 1177 690 sensors 0;
#X msg 157 37 open 4;
#X msg 79 32 devices;
#X msg 175 71 close;
#X obj 133 116 comport 4 9600;
#X obj 288 160 t b f;
#X obj 398 232 pack 0 0;
#X obj 202 167 f;
#X obj 202 191 + 1;
#X msg 241 137 0;
#X floatatom 341 311 5 0 0 0 - - -;
#X floatatom 391 308 5 0 0 0 - - -;
#X floatatom 434 310 5 0 0 0 - - -;
#X obj 132 296 print;
#X obj 202 215 % 10;
#X obj 117 209 t b;
#X obj 393 396 bng 15 250 50 0 empty empty empty 17 7 0 10 -262144
-1 -1;
#X obj 934 508 bng 15 250 50 0 empty empty empty 17 7 0 10 -262144
-1 -1;
#X obj 448 423 bng 15 250 50 0 empty empty empty 17 7 0 10 -262144
-1 -1;
#X obj 487 448 bng 15 250 50 0 empty empty empty 17 7 0 10 -262144
-1 -1;
#X obj 570 389 bng 15 250 50 0 empty empty empty 17 7 0 10 -262144
-1 -1;
#X obj 609 414 bng 15 250 50 0 empty empty empty 17 7 0 10 -262144
-1 -1;
#X obj 636 440 bng 15 250 50 0 empty empty empty 17 7 0 10 -262144
-1 -1;
#X obj 735 382 bng 15 250 50 0 empty empty empty 17 7 0 10 -262144
-1 -1;
#X obj 774 407 bng 15 250 50 0 empty empty empty 17 7 0 10 -262144
-1 -1;
#X obj 801 433 bng 15 250 50 0 empty empty empty 17 7 0 10 -262144
-1 -1;
#X obj 397 264 route 0 1 2 3 4 5 6 7 8 9 10, f 56;
#X obj 851 347 bng 15 250 50 0 empty empty empty 17 7 0 10 -262144
-1 -1;
#X obj 316 547 outlet;
#X obj 370 547 outlet;
#X obj 427 547 outlet;
#X obj 481 547 outlet;
#X obj 535 548 outlet;
#X obj 589 548 outlet;
#X obj 646 548 outlet;
#X obj 700 548 outlet;
#X obj 753 549 outlet;
#X obj 807 549 outlet;
#X obj 387 362 s_thresh 150 100;
#X obj 442 389 s_thresh 150 100;
#X obj 481 414 s_thresh 150 100;
#X obj 564 355 s_thresh 150 100;
#X obj 603 380 s_thresh 150 100;
#X obj 630 406 s_thresh 150 100;
#X obj 729 348 s_thresh 150 100;
#X obj 768 373 s_thresh 150 100;
#X obj 795 399 s_thresh 150 100;
#X obj 928 474 s_thresh 150 100;
#X obj 899 95 s threshold;
#X obj 900 154 s delay;
#X floatatom 900 62 5 0 0 0 - - -;
#X floatatom 899 123 5 0 0 0 - - -;
#X text 962 62 All;
#X text 957 123 All;
#X connect 0 0 3 0;
#X connect 1 0 3 0;
#X connect 2 0 3 0;
#X connect 3 0 4 0;
#X connect 3 0 14 0;
#X connect 4 0 6 0;
#X connect 4 1 5 1;
#X connect 5 0 25 0;
#X connect 6 0 7 0;
#X connect 7 0 13 0;
#X connect 8 0 6 1;
#X connect 13 0 6 1;
#X connect 13 0 5 0;
#X connect 15 0 27 0;
#X connect 17 0 28 0;
#X connect 25 0 9 0;
#X connect 25 0 46 0;
#X connect 25 1 10 0;
#X connect 25 1 37 0;
#X connect 25 2 11 0;
#X connect 25 2 38 0;
#X connect 25 3 39 0;
#X connect 25 4 40 0;
#X connect 25 5 41 0;
#X connect 25 6 42 0;
#X connect 25 7 43 0;
#X connect 25 8 44 0;
#X connect 25 9 45 0;
#X connect 37 0 15 0;
#X connect 38 0 17 0;
#X connect 39 0 18 0;
#X connect 39 0 29 0;
#X connect 40 0 19 0;
#X connect 40 0 30 0;
#X connect 41 0 20 0;
#X connect 41 0 31 0;
#X connect 42 0 21 0;
#X connect 42 0 32 0;
#X connect 43 0 22 0;
#X connect 43 0 33 0;
#X connect 44 0 23 0;
#X connect 44 0 34 0;
#X connect 45 0 24 0;
#X connect 45 0 35 0;
#X connect 46 0 16 0;
#X connect 46 0 36 0;
#X connect 49 0 47 0;
#X connect 50 0 48 0;
#X restore 119 19 pd sensors;
#X f 43;
#X obj 187 58 bng 15 250 50 0 empty empty empty 17 7 0 10 -262144 -1
-1;
#X obj 218 60 bng 15 250 50 0 empty empty empty 17 7 0 10 -262144 -1
-1;
#X obj 256 61 bng 15 250 50 0 empty empty empty 17 7 0 10 -262144 -1
-1;
#X obj 287 63 bng 15 250 50 0 empty empty empty 17 7 0 10 -262144 -1
-1;
#X obj 320 62 bng 15 250 50 0 empty empty empty 17 7 0 10 -262144 -1
-1;
#X obj 351 64 bng 15 250 50 0 empty empty empty 17 7 0 10 -262144 -1
-1;
#X obj 387 60 bng 15 250 50 0 empty empty empty 17 7 0 10 -262144 -1
-1;
#X obj 418 62 bng 15 250 50 0 empty empty empty 17 7 0 10 -262144 -1
-1;
#X obj 307 394 noteout;
#X obj 38 222 makenote 127 500;
#X msg 124 136 60;
#X msg 159 135 61;
#X msg 197 136 62;
#X msg 233 134 63;
#X msg 269 137 64;
#X msg 306 139 65;
#X msg 342 142 66;
#X msg 379 141 67;
#X msg 413 142 68;
#X msg 447 144 69;
#X obj 168 221 makenote 127 500;
#X obj 71 254 makenote 127 500;
#X obj 201 253 makenote 127 500;
#X obj 304 226 makenote 127 500;
#X obj 434 225 makenote 127 500;
#X obj 337 258 makenote 127 500;
#X obj 467 257 makenote 127 500;
#X obj 357 294 makenote 127 500;
#X obj 487 293 makenote 127 500;
#X floatatom 529 145 5 0 0 0 - - -;
#X connect 1 0 16 0;
#X connect 5 0 1 0;
#X connect 5 1 4 0;
#X connect 5 1 17 0;
#X connect 5 2 6 0;
#X connect 5 2 18 0;
#X connect 5 3 7 0;
#X connect 5 3 19 0;
#X connect 5 4 8 0;
#X connect 5 4 20 0;
#X connect 5 5 9 0;
#X connect 5 5 21 0;
#X connect 5 6 10 0;
#X connect 5 6 22 0;
#X connect 5 7 11 0;
#X connect 5 7 23 0;
#X connect 5 8 12 0;
#X connect 5 8 24 0;
#X connect 5 9 13 0;
#X connect 5 9 25 0;
#X connect 15 0 14 0;
#X connect 15 1 14 1;
#X connect 16 0 15 0;
#X connect 17 0 26 0;
#X connect 18 0 27 0;
#X connect 19 0 28 0;
#X connect 20 0 29 0;
#X connect 21 0 30 0;
#X connect 22 0 31 0;
#X connect 23 0 32 0;
#X connect 24 0 33 0;
#X connect 25 0 34 0;
#X connect 26 0 14 0;
#X connect 26 1 14 1;
#X connect 27 0 14 0;
#X connect 27 1 14 1;
#X connect 28 0 14 0;
#X connect 28 1 14 1;
#X connect 29 0 14 0;
#X connect 29 1 14 1;
#X connect 30 0 14 0;
#X connect 30 1 14 1;
#X connect 31 0 14 0;
#X connect 31 1 14 1;
#X connect 32 0 14 0;
#X connect 32 1 14 1;
#X connect 33 0 14 0;
#X connect 33 1 14 1;
#X connect 34 0 14 0;
#X connect 34 1 14 1;
#X connect 35 0 30 2;
#X connect 35 0 32 2;
#X connect 35 0 34 2;
#X connect 35 0 33 2;
#X connect 35 0 31 2;
#X connect 35 0 29 2;
#X connect 35 0 28 2;
#X connect 35 0 26 2;
#X connect 35 0 15 2;
#X connect 35 0 27 2;
