#N canvas 132 44 1103 572 10;
#X declare -path abstractions;
#X declare -path audio;
#X obj 558 4 declare -path abstractions;
#X obj 558 25 declare -path audio;
#X obj 388 450 dac~;
#X obj 99 85 *~;
#X obj 141 77 tgl 15 0 empty empty empty 17 7 0 10 -262144 -1 -1 0
1;
#X obj 255 90 *~;
#X obj 297 82 tgl 15 0 empty empty empty 17 7 0 10 -262144 -1 -1 0
1;
#X obj 69 139 triggering snare.wav 80;
#X obj 225 144 triggering kick.wav 80;
#X obj 392 97 *~;
#X obj 437 78 tgl 15 0 empty empty empty 17 7 0 10 -262144 -1 -1 0
1;
#X obj 398 129 flanger+envelope;
#X obj 529 151 flanger_modulated;
#X obj 527 111 *~;
#X obj 548 90 tgl 15 0 empty empty empty 17 7 0 10 -262144 -1 -1 0
1;
#X obj 343 207 *~;
#X obj 356 185 tgl 15 0 empty empty empty 17 7 0 10 -262144 -1 -1 0
1;
#X obj 22 143 gs~;
#X obj 8 92 *~;
#X obj -1 63 tgl 15 0 empty empty empty 17 7 0 10 -262144 -1 -1 0 1
;
#X obj 43 114 bng 15 250 50 0 empty empty empty 17 7 0 10 -262144 -1
-1;
#X obj 648 151 g_sampler;
#X obj 646 112 *~;
#X obj 667 91 tgl 15 0 empty empty empty 17 7 0 10 -262144 -1 -1 0
1;
#X obj 12 243 g_sampler_slow;
#X obj 17 213 *~;
#X obj 8 184 tgl 15 0 empty empty empty 17 7 0 10 -262144 -1 -1 0 1
;
#X obj 129 399 m_delay;
#X obj 81 362 *~;
#X obj 98 333 tgl 15 0 empty empty empty 17 7 0 10 -262144 -1 -1 0
1;
#X obj 619 291 g_sampler_decay;
#X obj 634 238 *~;
#X obj 655 217 tgl 15 0 empty empty empty 17 7 0 10 -262144 -1 -1 0
1;
#N canvas 0 22 779 546 vocrev 0;
#X obj 51 345 vocoder;
#X obj 93 443 *~;
#X obj 164 421 line~;
#X obj 236 383 del 20;
#X obj 236 404 pack 0 20;
#X obj 164 400 pack 1 20;
#X obj 24 275 bng 15 250 50 0 empty empty empty 17 7 0 10 -262144 -1
-1;
#X obj 24 67 env~ 64;
#X obj 24 146 sel 1;
#X obj 24 94 spigot;
#X obj 79 90 tgl 15 0 empty empty empty 17 7 0 10 -262144 -1 -1 1 1
;
#X obj 24 250 spigot;
#X obj 24 172 t b b b;
#X msg 71 197 0;
#X msg 24 222 1;
#X text 103 71 turn input off;
#X text 60 121 trigger theshold;
#X obj 24 43 inlet~;
#X msg 79 46 1;
#X obj 24 121 > 80;
#X obj 24 197 del 30;
#X obj 79 23 loadbang;
#X obj 89 507 outlet~;
#X floatatom 276 327 5 0 0 0 - - -;
#X obj 93 468 rev3~ 100 80 3000 20;
#X obj 85 383 samphold~;
#X obj 136 358 phasor~ 200;
#X floatatom 169 300 5 0 0 0 - - -;
#X connect 0 0 25 0;
#X connect 1 0 24 0;
#X connect 2 0 1 1;
#X connect 3 0 4 0;
#X connect 4 0 2 0;
#X connect 5 0 2 0;
#X connect 6 0 5 0;
#X connect 6 0 3 0;
#X connect 7 0 9 0;
#X connect 8 0 12 0;
#X connect 9 0 19 0;
#X connect 10 0 9 1;
#X connect 11 0 6 0;
#X connect 12 0 20 0;
#X connect 12 1 13 0;
#X connect 12 2 11 0;
#X connect 13 0 11 1;
#X connect 14 0 11 1;
#X connect 17 0 7 0;
#X connect 17 0 0 0;
#X connect 18 0 10 0;
#X connect 18 0 11 1;
#X connect 19 0 8 0;
#X connect 20 0 14 0;
#X connect 21 0 18 0;
#X connect 23 0 5 1;
#X connect 23 0 3 1;
#X connect 23 0 4 1;
#X connect 24 0 22 0;
#X connect 24 1 22 0;
#X connect 25 0 1 0;
#X connect 26 0 25 1;
#X connect 27 0 26 0;
#X restore 713 359 pd vocrev;
#X obj 714 336 *~;
#X obj 735 315 tgl 15 0 empty empty empty 17 7 0 10 -262144 -1 -1 0
1;
#X obj 7 522 samphold~;
#X obj 790 329 *~;
#X obj 811 308 tgl 15 0 empty empty empty 17 7 0 10 -262144 -1 -1 0
1;
#N canvas 0 22 779 546 vocrev_nocrush 0;
#X obj 51 345 vocoder;
#X obj 93 443 *~;
#X obj 164 421 line~;
#X obj 236 383 del 20;
#X obj 236 404 pack 0 20;
#X obj 164 400 pack 1 20;
#X obj 24 275 bng 15 250 50 0 empty empty empty 17 7 0 10 -262144 -1
-1;
#X obj 24 67 env~ 64;
#X obj 24 146 sel 1;
#X obj 24 94 spigot;
#X obj 79 90 tgl 15 0 empty empty empty 17 7 0 10 -262144 -1 -1 1 1
;
#X obj 24 250 spigot;
#X obj 24 172 t b b b;
#X msg 71 197 0;
#X msg 24 222 1;
#X text 103 71 turn input off;
#X text 60 121 trigger theshold;
#X obj 24 43 inlet~;
#X msg 79 46 1;
#X obj 24 121 > 80;
#X obj 24 197 del 30;
#X obj 79 23 loadbang;
#X obj 89 507 outlet~;
#X floatatom 276 327 5 0 0 0 - - -;
#X obj 93 468 rev3~ 100 80 3000 20;
#X obj 278 267 loadbang;
#X msg 278 288 100;
#X floatatom 179 115 5 0 0 0 - - -;
#X connect 0 0 1 0;
#X connect 1 0 24 0;
#X connect 2 0 1 1;
#X connect 3 0 4 0;
#X connect 4 0 2 0;
#X connect 5 0 2 0;
#X connect 6 0 5 0;
#X connect 6 0 3 0;
#X connect 7 0 9 0;
#X connect 8 0 12 0;
#X connect 9 0 19 0;
#X connect 10 0 9 1;
#X connect 11 0 6 0;
#X connect 12 0 20 0;
#X connect 12 1 13 0;
#X connect 12 2 11 0;
#X connect 13 0 11 1;
#X connect 14 0 11 1;
#X connect 17 0 7 0;
#X connect 17 0 0 0;
#X connect 18 0 10 0;
#X connect 18 0 11 1;
#X connect 19 0 8 0;
#X connect 20 0 14 0;
#X connect 21 0 18 0;
#X connect 23 0 5 1;
#X connect 23 0 3 1;
#X connect 23 0 4 1;
#X connect 24 0 22 0;
#X connect 24 1 22 0;
#X connect 25 0 26 0;
#X connect 26 0 23 0;
#X connect 27 0 19 1;
#X restore 789 352 pd vocrev_nocrush;
#X obj 342 248 filterbank;
#X obj 661 465 readsf~;
#X msg 710 394 stop;
#X msg 633 428 open ./audio/voice.wav \, start;
#X obj 662 497 *~;
#X obj 616 497 *~;
#X obj 728 485 tgl 15 0 empty empty empty 17 7 0 10 -262144 -1 -1 0
1;
#X obj 728 505 - 1;
#X obj 625 465 tgl 15 0 empty empty empty 17 7 0 10 -262144 -1 -1 0
1;
#X obj 663 529 bitcrusher~ 130;
#X obj 357 9 adc~ 3;
#X obj 784 105 g_sampler_sample;
#X obj 784 83 *~;
#X obj 805 62 tgl 15 0 empty empty empty 17 7 0 10 -262144 -1 -1 0
1;
#X connect 3 0 7 0;
#X connect 4 0 3 1;
#X connect 5 0 8 0;
#X connect 6 0 5 1;
#X connect 7 0 2 0;
#X connect 7 0 2 1;
#X connect 8 0 2 0;
#X connect 8 0 2 1;
#X connect 9 0 11 0;
#X connect 10 0 9 1;
#X connect 11 0 2 0;
#X connect 11 0 2 1;
#X connect 12 0 2 0;
#X connect 12 0 2 1;
#X connect 13 0 12 0;
#X connect 14 0 13 1;
#X connect 15 0 40 0;
#X connect 16 0 15 1;
#X connect 17 0 2 1;
#X connect 17 0 2 0;
#X connect 18 0 17 0;
#X connect 19 0 18 1;
#X connect 20 0 17 1;
#X connect 21 0 2 0;
#X connect 21 0 2 1;
#X connect 22 0 21 0;
#X connect 23 0 22 1;
#X connect 24 0 2 0;
#X connect 24 0 2 1;
#X connect 25 0 24 0;
#X connect 26 0 25 1;
#X connect 27 0 2 0;
#X connect 27 0 2 1;
#X connect 28 0 27 0;
#X connect 29 0 28 1;
#X connect 30 0 2 0;
#X connect 30 0 2 1;
#X connect 31 0 30 0;
#X connect 32 0 31 1;
#X connect 33 0 2 0;
#X connect 33 0 2 1;
#X connect 34 0 33 0;
#X connect 35 0 34 1;
#X connect 37 0 39 0;
#X connect 38 0 37 1;
#X connect 39 0 2 0;
#X connect 39 0 2 1;
#X connect 40 0 2 0;
#X connect 40 0 2 1;
#X connect 41 0 44 0;
#X connect 41 0 45 0;
#X connect 42 0 41 0;
#X connect 43 0 41 0;
#X connect 44 0 49 0;
#X connect 45 0 2 0;
#X connect 45 0 2 1;
#X connect 46 0 44 1;
#X connect 46 0 47 0;
#X connect 47 0 48 0;
#X connect 48 0 45 1;
#X connect 49 0 2 0;
#X connect 49 0 2 1;
#X connect 50 0 3 0;
#X connect 50 0 5 0;
#X connect 50 0 9 0;
#X connect 50 0 13 0;
#X connect 50 0 15 0;
#X connect 50 0 18 0;
#X connect 50 0 22 0;
#X connect 50 0 25 0;
#X connect 50 0 28 0;
#X connect 50 0 31 0;
#X connect 50 0 34 0;
#X connect 50 0 37 0;
#X connect 50 0 52 0;
#X connect 51 0 2 0;
#X connect 51 0 2 1;
#X connect 52 0 51 0;
#X connect 53 0 52 1;
