#N canvas 116 99 450 300 10;
#X msg 43 27 devices;
#X floatatom 68 48 5 0 0 0 - - -;
#X msg 68 69 open \$1;
#X msg 70 93 close;
#X obj 160 206 pack;
#X msg 160 228 print \$1p\$2d;
#X obj 243 151 tgl 15 0 empty empty empty 17 7 0 10 -262144 -1 -1 0
1;
#X obj 243 108 r pd;
#X obj 243 130 route dsp;
#X obj 43 149 comport;
#X floatatom 160 20 5 0 0 0 - - -;
#X obj 160 41 osc~;
#X obj 160 63 *~ 127;
#X obj 160 85 +~ 128;
#X obj 160 157 snapshot~;
#X obj 171 110 tgl 15 0 empty empty empty 17 7 0 10 -262144 -1 -1 0
1;
#X obj 171 130 metro 10;
#X obj 160 179 i;
#X text 205 63 set oscillator's range within;
#X text 205 76 the values of one byte;
#X text 275 106 receive data from Pd;
#X obj 243 171 t b f;
#X connect 0 0 9 0;
#X connect 1 0 2 0;
#X connect 2 0 9 0;
#X connect 3 0 9 0;
#X connect 4 0 5 0;
#X connect 5 0 9 0;
#X connect 6 0 21 0;
#X connect 7 0 8 0;
#X connect 8 0 6 0;
#X connect 10 0 11 0;
#X connect 11 0 12 0;
#X connect 12 0 13 0;
#X connect 13 0 14 0;
#X connect 14 0 17 0;
#X connect 15 0 16 0;
#X connect 16 0 14 0;
#X connect 17 0 4 0;
#X connect 21 0 4 0;
#X connect 21 1 4 1;
