#N canvas 91 62 942 631 12;
#X declare -path ./Pduino-0.5;
#X obj 35 45 declare -path ./Pduino-0.5;
#X msg 308 25 open 4;
#X msg 230 20 devices;
#X msg 326 59 close;
#X obj 284 104 comport 4 9600;
#X obj 406 314 > 100;
#X obj 406 338 sel 1;
#X obj 428 502 bng 15 250 50 0 empty empty empty 17 7 0 10 -262144
-1 -1;
#X obj 414 464 spigot;
#X obj 411 363 t b b b;
#X msg 476 397 0;
#X obj 407 392 del 20;
#X msg 404 418 1;
#X floatatom 469 323 5 0 0 0 - - -;
#X obj 16 309 print;
#X floatatom 488 369 5 0 0 0 - - -;
#X obj 284 139 t b f;
#X floatatom 413 275 5 0 0 0 - - -;
#X floatatom 473 280 5 0 0 0 - - -;
#X floatatom 354 275 5 0 0 0 - - -;
#X obj 394 211 pack 0 0;
#X obj 198 146 f;
#X obj 198 170 + 1;
#X obj 198 194 % 3;
#X msg 237 116 0;
#X obj 393 243 route 0 1 2;
#X obj 538 311 > 100;
#X obj 538 335 sel 1;
#X obj 560 499 bng 15 250 50 0 empty empty empty 17 7 0 10 -262144
-1 -1;
#X obj 546 461 spigot;
#X obj 543 360 t b b b;
#X msg 608 394 0;
#X obj 539 389 del 20;
#X msg 536 415 1;
#X floatatom 601 320 5 0 0 0 - - -;
#X floatatom 620 366 5 0 0 0 - - -;
#X connect 1 0 4 0;
#X connect 2 0 4 0;
#X connect 3 0 4 0;
#X connect 4 0 16 0;
#X connect 5 0 6 0;
#X connect 6 0 9 0;
#X connect 8 0 7 0;
#X connect 9 0 11 0;
#X connect 9 1 10 0;
#X connect 9 2 8 0;
#X connect 10 0 8 1;
#X connect 11 0 12 0;
#X connect 12 0 8 1;
#X connect 13 0 5 1;
#X connect 15 0 11 1;
#X connect 16 0 21 0;
#X connect 16 1 20 1;
#X connect 17 0 5 0;
#X connect 18 0 26 0;
#X connect 20 0 25 0;
#X connect 21 0 22 0;
#X connect 22 0 23 0;
#X connect 23 0 21 1;
#X connect 23 0 20 0;
#X connect 24 0 21 1;
#X connect 25 0 19 0;
#X connect 25 1 17 0;
#X connect 25 2 18 0;
#X connect 26 0 27 0;
#X connect 27 0 30 0;
#X connect 29 0 28 0;
#X connect 30 0 32 0;
#X connect 30 1 31 0;
#X connect 30 2 29 0;
#X connect 31 0 29 1;
#X connect 32 0 33 0;
#X connect 33 0 29 1;
#X connect 34 0 26 1;
#X connect 35 0 32 1;
