#N canvas 243 60 553 507 10;
#X msg 157 96 close;
#X obj 116 148 select 192;
#X obj 173 262 spigot;
#X msg 185 324 0;
#X msg 116 197 1;
#X obj 135 324 spigot;
#X msg 168 189 0;
#X obj 116 172 t b b b;
#X msg 116 27 devices;
#X obj 135 368 t f b;
#X obj 168 393 * 128;
#X obj 135 410 +;
#X floatatom 135 432 5 0 0 0 - - -, f 5;
#X msg 157 72 open \$1;
#X floatatom 157 51 5 0 0 0 - - -, f 5;
#X obj 135 346 unpack;
#X obj 135 292 repack 2;
#X obj 116 125 comport;
#X obj 116 219 t f f;
#X connect 0 0 17 0;
#X connect 1 0 7 0;
#X connect 1 1 2 0;
#X connect 2 0 16 0;
#X connect 3 0 2 1;
#X connect 4 0 18 0;
#X connect 5 0 15 0;
#X connect 6 0 5 1;
#X connect 7 0 4 0;
#X connect 7 1 16 0;
#X connect 7 2 6 0;
#X connect 8 0 17 0;
#X connect 9 0 11 0;
#X connect 9 1 3 0;
#X connect 10 0 11 1;
#X connect 11 0 12 0;
#X connect 13 0 17 0;
#X connect 14 0 13 0;
#X connect 15 0 9 0;
#X connect 15 1 10 0;
#X connect 16 0 5 0;
#X connect 17 0 1 0;
#X connect 18 0 5 1;
#X connect 18 1 2 1;
